<?xml version="1.0" encoding="utf-8"?>
<!-- Generator: Adobe Illustrator 26.5.0, SVG Export Plug-In . SVG Version: 6.00 Build 0)  -->
<svg version="1.1" id="Layer_1" xmlns:svgjs="http://svgjs.com/svgjs"
	 xmlns="http://www.w3.org/2000/svg" xmlns:xlink="http://www.w3.org/1999/xlink" x="0px" y="0px" viewBox="0 0 1051 1051"
	 style="enable-background:new 0 0 1051 1051;" xml:space="preserve">
<style type="text/css">
	.st0{fill:none;stroke:#000000;stroke-width:27;}
</style>
<path d="M296,93.5c0-7.5,6-13.5,13.5-13.5S323,86,323,93.5s-6,13.5-13.5,13.5S296,101,296,93.5"/>
<path d="M350,93.5c0-7.5,6-13.5,13.5-13.5S377,86,377,93.5s-6,13.5-13.5,13.5S350,101,350,93.5"/>
<path d="M404,93.5c0-7.5,6-13.5,13.5-13.5S431,86,431,93.5s-6,13.5-13.5,13.5S404,101,404,93.5"/>
<path d="M512,93.5c0-7.5,6-13.5,13.5-13.5S539,86,539,93.5s-6,13.5-13.5,13.5S512,101,512,93.5"/>
<path d="M620,93.5c0-7.5,6-13.5,13.5-13.5S647,86,647,93.5s-6,13.5-13.5,13.5S620,101,620,93.5"/>
<path d="M647,93.5c0-7.5,6-13.5,13.5-13.5S674,86,674,93.5s-6,13.5-13.5,13.5S647,101,647,93.5"/>
<path d="M701,93.5c0-7.5,6-13.5,13.5-13.5S728,86,728,93.5s-6,13.5-13.5,13.5S701,101,701,93.5"/>
<path d="M728,93.5c0-7.5,6-13.5,13.5-13.5S755,86,755,93.5s-6,13.5-13.5,13.5S728,101,728,93.5"/>
<path d="M296,120.5c0-7.5,6-13.5,13.5-13.5s13.5,6,13.5,13.5s-6,13.5-13.5,13.5S296,128,296,120.5"/>
<path d="M323,120.5c0-7.5,6-13.5,13.5-13.5s13.5,6,13.5,13.5s-6,13.5-13.5,13.5S323,128,323,120.5"/>
<path d="M404,120.5c0-7.5,6-13.5,13.5-13.5s13.5,6,13.5,13.5s-6,13.5-13.5,13.5S404,128,404,120.5"/>
<path d="M458,120.5c0-7.5,6-13.5,13.5-13.5s13.5,6,13.5,13.5s-6,13.5-13.5,13.5S458,128,458,120.5"/>
<path d="M485,120.5c0-7.5,6-13.5,13.5-13.5s13.5,6,13.5,13.5s-6,13.5-13.5,13.5S485,128,485,120.5"/>
<path d="M512,120.5c0-7.5,6-13.5,13.5-13.5s13.5,6,13.5,13.5s-6,13.5-13.5,13.5S512,128,512,120.5"/>
<path d="M539,120.5c0-7.5,6-13.5,13.5-13.5s13.5,6,13.5,13.5s-6,13.5-13.5,13.5S539,128,539,120.5"/>
<path d="M566,120.5c0-7.5,6-13.5,13.5-13.5s13.5,6,13.5,13.5s-6,13.5-13.5,13.5S566,128,566,120.5"/>
<path d="M593,120.5c0-7.5,6-13.5,13.5-13.5s13.5,6,13.5,13.5s-6,13.5-13.5,13.5S593,128,593,120.5"/>
<path d="M728,120.5c0-7.5,6-13.5,13.5-13.5s13.5,6,13.5,13.5s-6,13.5-13.5,13.5S728,128,728,120.5"/>
<path d="M296,147.5c0-7.5,6-13.5,13.5-13.5s13.5,6,13.5,13.5s-6,13.5-13.5,13.5S296,155,296,147.5"/>
<path d="M323,147.5c0-7.5,6-13.5,13.5-13.5s13.5,6,13.5,13.5s-6,13.5-13.5,13.5S323,155,323,147.5"/>
<path d="M377,147.5c0-7.5,6-13.5,13.5-13.5s13.5,6,13.5,13.5s-6,13.5-13.5,13.5S377,155,377,147.5"/>
<path d="M404,147.5c0-7.5,6-13.5,13.5-13.5s13.5,6,13.5,13.5s-6,13.5-13.5,13.5S404,155,404,147.5"/>
<path d="M431,147.5c0-7.5,6-13.5,13.5-13.5s13.5,6,13.5,13.5s-6,13.5-13.5,13.5S431,155,431,147.5"/>
<path d="M458,147.5c0-7.5,6-13.5,13.5-13.5s13.5,6,13.5,13.5s-6,13.5-13.5,13.5S458,155,458,147.5"/>
<path d="M485,147.5c0-7.5,6-13.5,13.5-13.5s13.5,6,13.5,13.5s-6,13.5-13.5,13.5S485,155,485,147.5"/>
<path d="M566,147.5c0-7.5,6-13.5,13.5-13.5s13.5,6,13.5,13.5s-6,13.5-13.5,13.5S566,155,566,147.5"/>
<path d="M620,147.5c0-7.5,6-13.5,13.5-13.5s13.5,6,13.5,13.5s-6,13.5-13.5,13.5S620,155,620,147.5"/>
<path d="M647,147.5c0-7.5,6-13.5,13.5-13.5s13.5,6,13.5,13.5s-6,13.5-13.5,13.5S647,155,647,147.5"/>
<path d="M674,147.5c0-7.5,6-13.5,13.5-13.5s13.5,6,13.5,13.5s-6,13.5-13.5,13.5S674,155,674,147.5"/>
<path d="M701,147.5c0-7.5,6-13.5,13.5-13.5s13.5,6,13.5,13.5s-6,13.5-13.5,13.5S701,155,701,147.5"/>
<path d="M728,147.5c0-7.5,6-13.5,13.5-13.5s13.5,6,13.5,13.5s-6,13.5-13.5,13.5S728,155,728,147.5"/>
<path d="M350,174.5c0-7.5,6-13.5,13.5-13.5s13.5,6,13.5,13.5s-6,13.5-13.5,13.5S350,182,350,174.5"/>
<path d="M431,174.5c0-7.5,6-13.5,13.5-13.5s13.5,6,13.5,13.5s-6,13.5-13.5,13.5S431,182,431,174.5"/>
<path d="M458,174.5c0-7.5,6-13.5,13.5-13.5s13.5,6,13.5,13.5s-6,13.5-13.5,13.5S458,182,458,174.5"/>
<path d="M485,174.5c0-7.5,6-13.5,13.5-13.5s13.5,6,13.5,13.5s-6,13.5-13.5,13.5S485,182,485,174.5"/>
<path d="M539,174.5c0-7.5,6-13.5,13.5-13.5s13.5,6,13.5,13.5s-6,13.5-13.5,13.5S539,182,539,174.5"/>
<path d="M566,174.5c0-7.5,6-13.5,13.5-13.5s13.5,6,13.5,13.5s-6,13.5-13.5,13.5S566,182,566,174.5"/>
<path d="M620,174.5c0-7.5,6-13.5,13.5-13.5s13.5,6,13.5,13.5s-6,13.5-13.5,13.5S620,182,620,174.5"/>
<path d="M701,174.5c0-7.5,6-13.5,13.5-13.5s13.5,6,13.5,13.5s-6,13.5-13.5,13.5S701,182,701,174.5"/>
<path d="M350,201.5c0-7.5,6-13.5,13.5-13.5s13.5,6,13.5,13.5s-6,13.5-13.5,13.5S350,209,350,201.5"/>
<path d="M404,201.5c0-7.5,6-13.5,13.5-13.5s13.5,6,13.5,13.5s-6,13.5-13.5,13.5S404,209,404,201.5"/>
<path d="M431,201.5c0-7.5,6-13.5,13.5-13.5s13.5,6,13.5,13.5s-6,13.5-13.5,13.5S431,209,431,201.5"/>
<path d="M458,201.5c0-7.5,6-13.5,13.5-13.5s13.5,6,13.5,13.5s-6,13.5-13.5,13.5S458,209,458,201.5"/>
<path d="M512,201.5c0-7.5,6-13.5,13.5-13.5s13.5,6,13.5,13.5s-6,13.5-13.5,13.5S512,209,512,201.5"/>
<path d="M566,201.5c0-7.5,6-13.5,13.5-13.5s13.5,6,13.5,13.5s-6,13.5-13.5,13.5S566,209,566,201.5"/>
<path d="M647,201.5c0-7.5,6-13.5,13.5-13.5s13.5,6,13.5,13.5s-6,13.5-13.5,13.5S647,209,647,201.5"/>
<path d="M728,201.5c0-7.5,6-13.5,13.5-13.5s13.5,6,13.5,13.5s-6,13.5-13.5,13.5S728,209,728,201.5"/>
<path d="M350,228.5c0-7.5,6-13.5,13.5-13.5s13.5,6,13.5,13.5s-6,13.5-13.5,13.5S350,236,350,228.5"/>
<path d="M377,228.5c0-7.5,6-13.5,13.5-13.5s13.5,6,13.5,13.5s-6,13.5-13.5,13.5S377,236,377,228.5"/>
<path d="M404,228.5c0-7.5,6-13.5,13.5-13.5s13.5,6,13.5,13.5s-6,13.5-13.5,13.5S404,236,404,228.5"/>
<path d="M458,228.5c0-7.5,6-13.5,13.5-13.5s13.5,6,13.5,13.5s-6,13.5-13.5,13.5S458,236,458,228.5"/>
<path d="M566,228.5c0-7.5,6-13.5,13.5-13.5s13.5,6,13.5,13.5s-6,13.5-13.5,13.5S566,236,566,228.5"/>
<path d="M350,282.5c0-7.5,6-13.5,13.5-13.5s13.5,6,13.5,13.5s-6,13.5-13.5,13.5S350,290,350,282.5"/>
<path d="M458,282.5c0-7.5,6-13.5,13.5-13.5s13.5,6,13.5,13.5s-6,13.5-13.5,13.5S458,290,458,282.5"/>
<path d="M512,282.5c0-7.5,6-13.5,13.5-13.5s13.5,6,13.5,13.5s-6,13.5-13.5,13.5S512,290,512,282.5"/>
<path d="M593,282.5c0-7.5,6-13.5,13.5-13.5s13.5,6,13.5,13.5s-6,13.5-13.5,13.5S593,290,593,282.5"/>
<path d="M620,282.5c0-7.5,6-13.5,13.5-13.5s13.5,6,13.5,13.5s-6,13.5-13.5,13.5S620,290,620,282.5"/>
<path d="M647,282.5c0-7.5,6-13.5,13.5-13.5s13.5,6,13.5,13.5s-6,13.5-13.5,13.5S647,290,647,282.5"/>
<path d="M674,282.5c0-7.5,6-13.5,13.5-13.5s13.5,6,13.5,13.5s-6,13.5-13.5,13.5S674,290,674,282.5"/>
<path d="M728,282.5c0-7.5,6-13.5,13.5-13.5s13.5,6,13.5,13.5s-6,13.5-13.5,13.5S728,290,728,282.5"/>
<path d="M134,309.5c0-7.5,6-13.5,13.5-13.5s13.5,6,13.5,13.5s-6,13.5-13.5,13.5S134,317,134,309.5"/>
<path d="M161,309.5c0-7.5,6-13.5,13.5-13.5s13.5,6,13.5,13.5s-6,13.5-13.5,13.5S161,317,161,309.5"/>
<path d="M323,309.5c0-7.5,6-13.5,13.5-13.5s13.5,6,13.5,13.5s-6,13.5-13.5,13.5S323,317,323,309.5"/>
<path d="M350,309.5c0-7.5,6-13.5,13.5-13.5s13.5,6,13.5,13.5s-6,13.5-13.5,13.5S350,317,350,309.5"/>
<path d="M377,309.5c0-7.5,6-13.5,13.5-13.5s13.5,6,13.5,13.5s-6,13.5-13.5,13.5S377,317,377,309.5"/>
<path d="M431,309.5c0-7.5,6-13.5,13.5-13.5s13.5,6,13.5,13.5s-6,13.5-13.5,13.5S431,317,431,309.5"/>
<path d="M458,309.5c0-7.5,6-13.5,13.5-13.5s13.5,6,13.5,13.5s-6,13.5-13.5,13.5S458,317,458,309.5"/>
<path d="M485,309.5c0-7.5,6-13.5,13.5-13.5s13.5,6,13.5,13.5s-6,13.5-13.5,13.5S485,317,485,309.5"/>
<path d="M512,309.5c0-7.5,6-13.5,13.5-13.5s13.5,6,13.5,13.5s-6,13.5-13.5,13.5S512,317,512,309.5"/>
<path d="M539,309.5c0-7.5,6-13.5,13.5-13.5s13.5,6,13.5,13.5s-6,13.5-13.5,13.5S539,317,539,309.5"/>
<path d="M620,309.5c0-7.5,6-13.5,13.5-13.5s13.5,6,13.5,13.5s-6,13.5-13.5,13.5S620,317,620,309.5"/>
<path d="M647,309.5c0-7.5,6-13.5,13.5-13.5s13.5,6,13.5,13.5s-6,13.5-13.5,13.5S647,317,647,309.5"/>
<path d="M674,309.5c0-7.5,6-13.5,13.5-13.5s13.5,6,13.5,13.5s-6,13.5-13.5,13.5S674,317,674,309.5"/>
<path d="M755,309.5c0-7.5,6-13.5,13.5-13.5s13.5,6,13.5,13.5s-6,13.5-13.5,13.5S755,317,755,309.5"/>
<path d="M782,309.5c0-7.5,6-13.5,13.5-13.5s13.5,6,13.5,13.5s-6,13.5-13.5,13.5S782,317,782,309.5"/>
<path d="M809,309.5c0-7.5,6-13.5,13.5-13.5s13.5,6,13.5,13.5s-6,13.5-13.5,13.5S809,317,809,309.5"/>
<path d="M890,309.5c0-7.5,6-13.5,13.5-13.5s13.5,6,13.5,13.5s-6,13.5-13.5,13.5S890,317,890,309.5"/>
<path d="M917,309.5c0-7.5,6-13.5,13.5-13.5s13.5,6,13.5,13.5s-6,13.5-13.5,13.5S917,317,917,309.5"/>
<path d="M944,309.5c0-7.5,6-13.5,13.5-13.5s13.5,6,13.5,13.5s-6,13.5-13.5,13.5S944,317,944,309.5"/>
<path d="M134,336.5c0-7.5,6-13.5,13.5-13.5s13.5,6,13.5,13.5l0,0c0,7.5-6,13.5-13.5,13.5S134,344,134,336.5"/>
<path d="M161,336.5c0-7.5,6-13.5,13.5-13.5s13.5,6,13.5,13.5l0,0c0,7.5-6,13.5-13.5,13.5S161,344,161,336.5"/>
<path d="M188,336.5c0-7.5,6-13.5,13.5-13.5s13.5,6,13.5,13.5l0,0c0,7.5-6,13.5-13.5,13.5S188,344,188,336.5"/>
<path d="M215,336.5c0-7.5,6-13.5,13.5-13.5s13.5,6,13.5,13.5l0,0c0,7.5-6,13.5-13.5,13.5S215,344,215,336.5"/>
<path d="M323,336.5c0-7.5,6-13.5,13.5-13.5s13.5,6,13.5,13.5l0,0c0,7.5-6,13.5-13.5,13.5S323,344,323,336.5"/>
<path d="M404,336.5c0-7.5,6-13.5,13.5-13.5s13.5,6,13.5,13.5l0,0c0,7.5-6,13.5-13.5,13.5S404,344,404,336.5"/>
<path d="M431,336.5c0-7.5,6-13.5,13.5-13.5s13.5,6,13.5,13.5l0,0c0,7.5-6,13.5-13.5,13.5S431,344,431,336.5"/>
<path d="M458,336.5c0-7.5,6-13.5,13.5-13.5s13.5,6,13.5,13.5l0,0c0,7.5-6,13.5-13.5,13.5S458,344,458,336.5"/>
<path d="M539,336.5c0-7.5,6-13.5,13.5-13.5s13.5,6,13.5,13.5l0,0c0,7.5-6,13.5-13.5,13.5S539,344,539,336.5"/>
<path d="M566,336.5c0-7.5,6-13.5,13.5-13.5s13.5,6,13.5,13.5l0,0c0,7.5-6,13.5-13.5,13.5S566,344,566,336.5"/>
<path d="M593,336.5c0-7.5,6-13.5,13.5-13.5s13.5,6,13.5,13.5l0,0c0,7.5-6,13.5-13.5,13.5S593,344,593,336.5"/>
<path d="M620,336.5c0-7.5,6-13.5,13.5-13.5s13.5,6,13.5,13.5l0,0c0,7.5-6,13.5-13.5,13.5S620,344,620,336.5"/>
<path d="M674,336.5c0-7.5,6-13.5,13.5-13.5s13.5,6,13.5,13.5l0,0c0,7.5-6,13.5-13.5,13.5S674,344,674,336.5"/>
<path d="M701,336.5c0-7.5,6-13.5,13.5-13.5s13.5,6,13.5,13.5l0,0c0,7.5-6,13.5-13.5,13.5S701,344,701,336.5"/>
<path d="M728,336.5c0-7.5,6-13.5,13.5-13.5s13.5,6,13.5,13.5l0,0c0,7.5-6,13.5-13.5,13.5S728,344,728,336.5"/>
<path d="M755,336.5c0-7.5,6-13.5,13.5-13.5s13.5,6,13.5,13.5l0,0c0,7.5-6,13.5-13.5,13.5S755,344,755,336.5"/>
<path d="M782,336.5c0-7.5,6-13.5,13.5-13.5s13.5,6,13.5,13.5l0,0c0,7.5-6,13.5-13.5,13.5S782,344,782,336.5"/>
<path d="M890,336.5c0-7.5,6-13.5,13.5-13.5s13.5,6,13.5,13.5l0,0c0,7.5-6,13.5-13.5,13.5S890,344,890,336.5"/>
<path d="M917,336.5c0-7.5,6-13.5,13.5-13.5s13.5,6,13.5,13.5l0,0c0,7.5-6,13.5-13.5,13.5S917,344,917,336.5"/>
<path d="M944,336.5c0-7.5,6-13.5,13.5-13.5s13.5,6,13.5,13.5l0,0c0,7.5-6,13.5-13.5,13.5S944,344,944,336.5"/>
<path d="M107,363.5c0-7.5,6-13.5,13.5-13.5s13.5,6,13.5,13.5s-6,13.5-13.5,13.5S107,371,107,363.5"/>
<path d="M161,363.5c0-7.5,6-13.5,13.5-13.5s13.5,6,13.5,13.5s-6,13.5-13.5,13.5S161,371,161,363.5"/>
<path d="M215,363.5c0-7.5,6-13.5,13.5-13.5s13.5,6,13.5,13.5s-6,13.5-13.5,13.5S215,371,215,363.5"/>
<path d="M269,363.5c0-7.5,6-13.5,13.5-13.5s13.5,6,13.5,13.5s-6,13.5-13.5,13.5S269,371,269,363.5"/>
<path d="M296,363.5c0-7.5,6-13.5,13.5-13.5s13.5,6,13.5,13.5s-6,13.5-13.5,13.5S296,371,296,363.5"/>
<path d="M323,363.5c0-7.5,6-13.5,13.5-13.5s13.5,6,13.5,13.5s-6,13.5-13.5,13.5S323,371,323,363.5"/>
<path d="M404,363.5c0-7.5,6-13.5,13.5-13.5s13.5,6,13.5,13.5s-6,13.5-13.5,13.5S404,371,404,363.5"/>
<path d="M431,363.5c0-7.5,6-13.5,13.5-13.5s13.5,6,13.5,13.5s-6,13.5-13.5,13.5S431,371,431,363.5"/>
<path d="M458,363.5c0-7.5,6-13.5,13.5-13.5s13.5,6,13.5,13.5s-6,13.5-13.5,13.5S458,371,458,363.5"/>
<path d="M512,363.5c0-7.5,6-13.5,13.5-13.5s13.5,6,13.5,13.5s-6,13.5-13.5,13.5S512,371,512,363.5"/>
<path d="M539,363.5c0-7.5,6-13.5,13.5-13.5s13.5,6,13.5,13.5s-6,13.5-13.5,13.5S539,371,539,363.5"/>
<path d="M593,363.5c0-7.5,6-13.5,13.5-13.5s13.5,6,13.5,13.5s-6,13.5-13.5,13.5S593,371,593,363.5"/>
<path d="M674,363.5c0-7.5,6-13.5,13.5-13.5s13.5,6,13.5,13.5s-6,13.5-13.5,13.5S674,371,674,363.5"/>
<path d="M728,363.5c0-7.5,6-13.5,13.5-13.5s13.5,6,13.5,13.5s-6,13.5-13.5,13.5S728,371,728,363.5"/>
<path d="M755,363.5c0-7.5,6-13.5,13.5-13.5s13.5,6,13.5,13.5s-6,13.5-13.5,13.5S755,371,755,363.5"/>
<path d="M782,363.5c0-7.5,6-13.5,13.5-13.5s13.5,6,13.5,13.5s-6,13.5-13.5,13.5S782,371,782,363.5"/>
<path d="M809,363.5c0-7.5,6-13.5,13.5-13.5s13.5,6,13.5,13.5s-6,13.5-13.5,13.5S809,371,809,363.5"/>
<path d="M917,363.5c0-7.5,6-13.5,13.5-13.5s13.5,6,13.5,13.5s-6,13.5-13.5,13.5S917,371,917,363.5"/>
<path d="M161,390.5c0-7.5,6-13.5,13.5-13.5s13.5,6,13.5,13.5s-6,13.5-13.5,13.5S161,398,161,390.5"/>
<path d="M188,390.5c0-7.5,6-13.5,13.5-13.5s13.5,6,13.5,13.5s-6,13.5-13.5,13.5S188,398,188,390.5"/>
<path d="M269,390.5c0-7.5,6-13.5,13.5-13.5s13.5,6,13.5,13.5s-6,13.5-13.5,13.5S269,398,269,390.5"/>
<path d="M377,390.5c0-7.5,6-13.5,13.5-13.5s13.5,6,13.5,13.5s-6,13.5-13.5,13.5S377,398,377,390.5"/>
<path d="M485,390.5c0-7.5,6-13.5,13.5-13.5s13.5,6,13.5,13.5s-6,13.5-13.5,13.5S485,398,485,390.5"/>
<path d="M512,390.5c0-7.5,6-13.5,13.5-13.5s13.5,6,13.5,13.5s-6,13.5-13.5,13.5S512,398,512,390.5"/>
<path d="M539,390.5c0-7.5,6-13.5,13.5-13.5s13.5,6,13.5,13.5s-6,13.5-13.5,13.5S539,398,539,390.5"/>
<path d="M566,390.5c0-7.5,6-13.5,13.5-13.5s13.5,6,13.5,13.5s-6,13.5-13.5,13.5S566,398,566,390.5"/>
<path d="M593,390.5c0-7.5,6-13.5,13.5-13.5s13.5,6,13.5,13.5s-6,13.5-13.5,13.5S593,398,593,390.5"/>
<path d="M620,390.5c0-7.5,6-13.5,13.5-13.5s13.5,6,13.5,13.5s-6,13.5-13.5,13.5S620,398,620,390.5"/>
<path d="M701,390.5c0-7.5,6-13.5,13.5-13.5s13.5,6,13.5,13.5s-6,13.5-13.5,13.5S701,398,701,390.5"/>
<path d="M728,390.5c0-7.5,6-13.5,13.5-13.5s13.5,6,13.5,13.5s-6,13.5-13.5,13.5S728,398,728,390.5"/>
<path d="M755,390.5c0-7.5,6-13.5,13.5-13.5s13.5,6,13.5,13.5s-6,13.5-13.5,13.5S755,398,755,390.5"/>
<path d="M782,390.5c0-7.5,6-13.5,13.5-13.5s13.5,6,13.5,13.5s-6,13.5-13.5,13.5S782,398,782,390.5"/>
<path d="M863,390.5c0-7.5,6-13.5,13.5-13.5s13.5,6,13.5,13.5s-6,13.5-13.5,13.5S863,398,863,390.5"/>
<path d="M890,390.5c0-7.5,6-13.5,13.5-13.5s13.5,6,13.5,13.5s-6,13.5-13.5,13.5S890,398,890,390.5"/>
<path d="M917,390.5c0-7.5,6-13.5,13.5-13.5s13.5,6,13.5,13.5s-6,13.5-13.5,13.5S917,398,917,390.5"/>
<path d="M107,417.5c0-7.5,6-13.5,13.5-13.5s13.5,6,13.5,13.5s-6,13.5-13.5,13.5S107,425,107,417.5"/>
<path d="M161,417.5c0-7.5,6-13.5,13.5-13.5s13.5,6,13.5,13.5s-6,13.5-13.5,13.5S161,425,161,417.5"/>
<path d="M269,417.5c0-7.5,6-13.5,13.5-13.5s13.5,6,13.5,13.5s-6,13.5-13.5,13.5S269,425,269,417.5"/>
<path d="M296,417.5c0-7.5,6-13.5,13.5-13.5s13.5,6,13.5,13.5s-6,13.5-13.5,13.5S296,425,296,417.5"/>
<path d="M350,417.5c0-7.5,6-13.5,13.5-13.5s13.5,6,13.5,13.5s-6,13.5-13.5,13.5S350,425,350,417.5"/>
<path d="M431,417.5c0-7.5,6-13.5,13.5-13.5s13.5,6,13.5,13.5s-6,13.5-13.5,13.5S431,425,431,417.5"/>
<path d="M539,417.5c0-7.5,6-13.5,13.5-13.5s13.5,6,13.5,13.5s-6,13.5-13.5,13.5S539,425,539,417.5"/>
<path d="M620,417.5c0-7.5,6-13.5,13.5-13.5s13.5,6,13.5,13.5s-6,13.5-13.5,13.5S620,425,620,417.5"/>
<path d="M647,417.5c0-7.5,6-13.5,13.5-13.5s13.5,6,13.5,13.5s-6,13.5-13.5,13.5S647,425,647,417.5"/>
<path d="M674,417.5c0-7.5,6-13.5,13.5-13.5s13.5,6,13.5,13.5s-6,13.5-13.5,13.5S674,425,674,417.5"/>
<path d="M701,417.5c0-7.5,6-13.5,13.5-13.5s13.5,6,13.5,13.5s-6,13.5-13.5,13.5S701,425,701,417.5"/>
<path d="M755,417.5c0-7.5,6-13.5,13.5-13.5s13.5,6,13.5,13.5s-6,13.5-13.5,13.5S755,425,755,417.5"/>
<path d="M809,417.5c0-7.5,6-13.5,13.5-13.5s13.5,6,13.5,13.5s-6,13.5-13.5,13.5S809,425,809,417.5"/>
<path d="M80,444.5c0-7.5,6-13.5,13.5-13.5s13.5,6,13.5,13.5S101,458,93.5,458S80,452,80,444.5"/>
<path d="M107,444.5c0-7.5,6-13.5,13.5-13.5s13.5,6,13.5,13.5s-6,13.5-13.5,13.5S107,452,107,444.5"/>
<path d="M134,444.5c0-7.5,6-13.5,13.5-13.5s13.5,6,13.5,13.5s-6,13.5-13.5,13.5S134,452,134,444.5"/>
<path d="M188,444.5c0-7.5,6-13.5,13.5-13.5s13.5,6,13.5,13.5s-6,13.5-13.5,13.5S188,452,188,444.5"/>
<path d="M215,444.5c0-7.5,6-13.5,13.5-13.5s13.5,6,13.5,13.5s-6,13.5-13.5,13.5S215,452,215,444.5"/>
<path d="M296,444.5c0-7.5,6-13.5,13.5-13.5s13.5,6,13.5,13.5s-6,13.5-13.5,13.5S296,452,296,444.5"/>
<path d="M323,444.5c0-7.5,6-13.5,13.5-13.5s13.5,6,13.5,13.5s-6,13.5-13.5,13.5S323,452,323,444.5"/>
<path d="M350,444.5c0-7.5,6-13.5,13.5-13.5s13.5,6,13.5,13.5s-6,13.5-13.5,13.5S350,452,350,444.5"/>
<path d="M377,444.5c0-7.5,6-13.5,13.5-13.5s13.5,6,13.5,13.5s-6,13.5-13.5,13.5S377,452,377,444.5"/>
<path d="M404,444.5c0-7.5,6-13.5,13.5-13.5s13.5,6,13.5,13.5s-6,13.5-13.5,13.5S404,452,404,444.5"/>
<path d="M458,444.5c0-7.5,6-13.5,13.5-13.5s13.5,6,13.5,13.5s-6,13.5-13.5,13.5S458,452,458,444.5"/>
<path d="M539,444.5c0-7.5,6-13.5,13.5-13.5s13.5,6,13.5,13.5s-6,13.5-13.5,13.5S539,452,539,444.5"/>
<path d="M593,444.5c0-7.5,6-13.5,13.5-13.5s13.5,6,13.5,13.5s-6,13.5-13.5,13.5S593,452,593,444.5"/>
<path d="M701,444.5c0-7.5,6-13.5,13.5-13.5s13.5,6,13.5,13.5s-6,13.5-13.5,13.5S701,452,701,444.5"/>
<path d="M782,444.5c0-7.5,6-13.5,13.5-13.5s13.5,6,13.5,13.5s-6,13.5-13.5,13.5S782,452,782,444.5"/>
<path d="M836,444.5c0-7.5,6-13.5,13.5-13.5s13.5,6,13.5,13.5s-6,13.5-13.5,13.5S836,452,836,444.5"/>
<path d="M863,444.5c0-7.5,6-13.5,13.5-13.5s13.5,6,13.5,13.5s-6,13.5-13.5,13.5S863,452,863,444.5"/>
<path d="M944,444.5c0-7.5,6-13.5,13.5-13.5s13.5,6,13.5,13.5s-6,13.5-13.5,13.5S944,452,944,444.5"/>
<path d="M107,471.5c0-7.5,6-13.5,13.5-13.5s13.5,6,13.5,13.5s-6,13.5-13.5,13.5S107,479,107,471.5"/>
<path d="M188,471.5c0-7.5,6-13.5,13.5-13.5s13.5,6,13.5,13.5s-6,13.5-13.5,13.5S188,479,188,471.5"/>
<path d="M269,471.5c0-7.5,6-13.5,13.5-13.5s13.5,6,13.5,13.5s-6,13.5-13.5,13.5S269,479,269,471.5"/>
<path d="M296,471.5c0-7.5,6-13.5,13.5-13.5s13.5,6,13.5,13.5s-6,13.5-13.5,13.5S296,479,296,471.5"/>
<path d="M323,471.5c0-7.5,6-13.5,13.5-13.5s13.5,6,13.5,13.5s-6,13.5-13.5,13.5S323,479,323,471.5"/>
<path d="M377,471.5c0-7.5,6-13.5,13.5-13.5s13.5,6,13.5,13.5s-6,13.5-13.5,13.5S377,479,377,471.5"/>
<path d="M431,471.5c0-7.5,6-13.5,13.5-13.5s13.5,6,13.5,13.5s-6,13.5-13.5,13.5S431,479,431,471.5"/>
<path d="M458,471.5c0-7.5,6-13.5,13.5-13.5s13.5,6,13.5,13.5s-6,13.5-13.5,13.5S458,479,458,471.5"/>
<path d="M674,471.5c0-7.5,6-13.5,13.5-13.5s13.5,6,13.5,13.5s-6,13.5-13.5,13.5S674,479,674,471.5"/>
<path d="M755,471.5c0-7.5,6-13.5,13.5-13.5s13.5,6,13.5,13.5s-6,13.5-13.5,13.5S755,479,755,471.5"/>
<path d="M782,471.5c0-7.5,6-13.5,13.5-13.5s13.5,6,13.5,13.5s-6,13.5-13.5,13.5S782,479,782,471.5"/>
<path d="M809,471.5c0-7.5,6-13.5,13.5-13.5s13.5,6,13.5,13.5s-6,13.5-13.5,13.5S809,479,809,471.5"/>
<path d="M836,471.5c0-7.5,6-13.5,13.5-13.5s13.5,6,13.5,13.5s-6,13.5-13.5,13.5S836,479,836,471.5"/>
<path d="M917,471.5c0-7.5,6-13.5,13.5-13.5s13.5,6,13.5,13.5s-6,13.5-13.5,13.5S917,479,917,471.5"/>
<path d="M80,498.5c0-7.5,6-13.5,13.5-13.5s13.5,6,13.5,13.5S101,512,93.5,512S80,506,80,498.5"/>
<path d="M107,498.5c0-7.5,6-13.5,13.5-13.5s13.5,6,13.5,13.5s-6,13.5-13.5,13.5S107,506,107,498.5"/>
<path d="M134,498.5c0-7.5,6-13.5,13.5-13.5s13.5,6,13.5,13.5s-6,13.5-13.5,13.5S134,506,134,498.5"/>
<path d="M188,498.5c0-7.5,6-13.5,13.5-13.5s13.5,6,13.5,13.5s-6,13.5-13.5,13.5S188,506,188,498.5"/>
<path d="M269,498.5c0-7.5,6-13.5,13.5-13.5s13.5,6,13.5,13.5s-6,13.5-13.5,13.5S269,506,269,498.5"/>
<path d="M296,498.5c0-7.5,6-13.5,13.5-13.5s13.5,6,13.5,13.5s-6,13.5-13.5,13.5S296,506,296,498.5"/>
<path d="M323,498.5c0-7.5,6-13.5,13.5-13.5s13.5,6,13.5,13.5s-6,13.5-13.5,13.5S323,506,323,498.5"/>
<path d="M350,498.5c0-7.5,6-13.5,13.5-13.5s13.5,6,13.5,13.5s-6,13.5-13.5,13.5S350,506,350,498.5"/>
<path d="M377,498.5c0-7.5,6-13.5,13.5-13.5s13.5,6,13.5,13.5s-6,13.5-13.5,13.5S377,506,377,498.5"/>
<path d="M431,498.5c0-7.5,6-13.5,13.5-13.5s13.5,6,13.5,13.5s-6,13.5-13.5,13.5S431,506,431,498.5"/>
<path d="M458,498.5c0-7.5,6-13.5,13.5-13.5s13.5,6,13.5,13.5s-6,13.5-13.5,13.5S458,506,458,498.5"/>
<path d="M512,498.5c0-7.5,6-13.5,13.5-13.5s13.5,6,13.5,13.5s-6,13.5-13.5,13.5S512,506,512,498.5"/>
<path d="M566,498.5c0-7.5,6-13.5,13.5-13.5s13.5,6,13.5,13.5s-6,13.5-13.5,13.5S566,506,566,498.5"/>
<path d="M593,498.5c0-7.5,6-13.5,13.5-13.5s13.5,6,13.5,13.5s-6,13.5-13.5,13.5S593,506,593,498.5"/>
<path d="M620,498.5c0-7.5,6-13.5,13.5-13.5s13.5,6,13.5,13.5s-6,13.5-13.5,13.5S620,506,620,498.5"/>
<path d="M647,498.5c0-7.5,6-13.5,13.5-13.5s13.5,6,13.5,13.5s-6,13.5-13.5,13.5S647,506,647,498.5"/>
<path d="M674,498.5c0-7.5,6-13.5,13.5-13.5s13.5,6,13.5,13.5s-6,13.5-13.5,13.5S674,506,674,498.5"/>
<path d="M836,498.5c0-7.5,6-13.5,13.5-13.5s13.5,6,13.5,13.5s-6,13.5-13.5,13.5S836,506,836,498.5"/>
<path d="M863,498.5c0-7.5,6-13.5,13.5-13.5s13.5,6,13.5,13.5s-6,13.5-13.5,13.5S863,506,863,498.5"/>
<path d="M944,498.5c0-7.5,6-13.5,13.5-13.5s13.5,6,13.5,13.5s-6,13.5-13.5,13.5S944,506,944,498.5"/>
<path d="M80,525.5c0-7.5,6-13.5,13.5-13.5s13.5,6,13.5,13.5S101,539,93.5,539S80,533,80,525.5"/>
<path d="M107,525.5c0-7.5,6-13.5,13.5-13.5s13.5,6,13.5,13.5s-6,13.5-13.5,13.5S107,533,107,525.5"/>
<path d="M188,525.5c0-7.5,6-13.5,13.5-13.5s13.5,6,13.5,13.5s-6,13.5-13.5,13.5S188,533,188,525.5"/>
<path d="M296,525.5c0-7.5,6-13.5,13.5-13.5s13.5,6,13.5,13.5s-6,13.5-13.5,13.5S296,533,296,525.5"/>
<path d="M323,525.5c0-7.5,6-13.5,13.5-13.5s13.5,6,13.5,13.5s-6,13.5-13.5,13.5S323,533,323,525.5"/>
<path d="M377,525.5c0-7.5,6-13.5,13.5-13.5s13.5,6,13.5,13.5s-6,13.5-13.5,13.5S377,533,377,525.5"/>
<path d="M404,525.5c0-7.5,6-13.5,13.5-13.5s13.5,6,13.5,13.5s-6,13.5-13.5,13.5S404,533,404,525.5"/>
<path d="M431,525.5c0-7.5,6-13.5,13.5-13.5s13.5,6,13.5,13.5s-6,13.5-13.5,13.5S431,533,431,525.5"/>
<path d="M458,525.5c0-7.5,6-13.5,13.5-13.5s13.5,6,13.5,13.5s-6,13.5-13.5,13.5S458,533,458,525.5"/>
<path d="M512,525.5c0-7.5,6-13.5,13.5-13.5s13.5,6,13.5,13.5s-6,13.5-13.5,13.5S512,533,512,525.5"/>
<path d="M539,525.5c0-7.5,6-13.5,13.5-13.5s13.5,6,13.5,13.5s-6,13.5-13.5,13.5S539,533,539,525.5"/>
<path d="M566,525.5c0-7.5,6-13.5,13.5-13.5s13.5,6,13.5,13.5s-6,13.5-13.5,13.5S566,533,566,525.5"/>
<path d="M593,525.5c0-7.5,6-13.5,13.5-13.5s13.5,6,13.5,13.5s-6,13.5-13.5,13.5S593,533,593,525.5"/>
<path d="M755,525.5c0-7.5,6-13.5,13.5-13.5s13.5,6,13.5,13.5s-6,13.5-13.5,13.5S755,533,755,525.5"/>
<path d="M809,525.5c0-7.5,6-13.5,13.5-13.5s13.5,6,13.5,13.5s-6,13.5-13.5,13.5S809,533,809,525.5"/>
<path d="M890,525.5c0-7.5,6-13.5,13.5-13.5s13.5,6,13.5,13.5s-6,13.5-13.5,13.5S890,533,890,525.5"/>
<path d="M944,525.5c0-7.5,6-13.5,13.5-13.5s13.5,6,13.5,13.5s-6,13.5-13.5,13.5S944,533,944,525.5"/>
<path d="M134,552.5c0-7.5,6-13.5,13.5-13.5s13.5,6,13.5,13.5s-6,13.5-13.5,13.5S134,560,134,552.5"/>
<path d="M161,552.5c0-7.5,6-13.5,13.5-13.5s13.5,6,13.5,13.5s-6,13.5-13.5,13.5S161,560,161,552.5"/>
<path d="M323,552.5c0-7.5,6-13.5,13.5-13.5s13.5,6,13.5,13.5s-6,13.5-13.5,13.5S323,560,323,552.5"/>
<path d="M350,552.5c0-7.5,6-13.5,13.5-13.5s13.5,6,13.5,13.5s-6,13.5-13.5,13.5S350,560,350,552.5"/>
<path d="M404,552.5c0-7.5,6-13.5,13.5-13.5s13.5,6,13.5,13.5s-6,13.5-13.5,13.5S404,560,404,552.5"/>
<path d="M431,552.5c0-7.5,6-13.5,13.5-13.5s13.5,6,13.5,13.5s-6,13.5-13.5,13.5S431,560,431,552.5"/>
<path d="M512,552.5c0-7.5,6-13.5,13.5-13.5s13.5,6,13.5,13.5s-6,13.5-13.5,13.5S512,560,512,552.5"/>
<path d="M539,552.5c0-7.5,6-13.5,13.5-13.5s13.5,6,13.5,13.5s-6,13.5-13.5,13.5S539,560,539,552.5"/>
<path d="M593,552.5c0-7.5,6-13.5,13.5-13.5s13.5,6,13.5,13.5s-6,13.5-13.5,13.5S593,560,593,552.5"/>
<path d="M620,552.5c0-7.5,6-13.5,13.5-13.5s13.5,6,13.5,13.5s-6,13.5-13.5,13.5S620,560,620,552.5"/>
<path d="M701,552.5c0-7.5,6-13.5,13.5-13.5s13.5,6,13.5,13.5s-6,13.5-13.5,13.5S701,560,701,552.5"/>
<path d="M728,552.5c0-7.5,6-13.5,13.5-13.5s13.5,6,13.5,13.5s-6,13.5-13.5,13.5S728,560,728,552.5"/>
<path d="M782,552.5c0-7.5,6-13.5,13.5-13.5s13.5,6,13.5,13.5s-6,13.5-13.5,13.5S782,560,782,552.5"/>
<path d="M80,579.5c0-7.5,6-13.5,13.5-13.5s13.5,6,13.5,13.5S101,593,93.5,593S80,587,80,579.5"/>
<path d="M107,579.5c0-7.5,6-13.5,13.5-13.5s13.5,6,13.5,13.5s-6,13.5-13.5,13.5S107,587,107,579.5"/>
<path d="M134,579.5c0-7.5,6-13.5,13.5-13.5s13.5,6,13.5,13.5s-6,13.5-13.5,13.5S134,587,134,579.5"/>
<path d="M161,579.5c0-7.5,6-13.5,13.5-13.5s13.5,6,13.5,13.5s-6,13.5-13.5,13.5S161,587,161,579.5"/>
<path d="M269,579.5c0-7.5,6-13.5,13.5-13.5s13.5,6,13.5,13.5s-6,13.5-13.5,13.5S269,587,269,579.5"/>
<path d="M323,579.5c0-7.5,6-13.5,13.5-13.5s13.5,6,13.5,13.5s-6,13.5-13.5,13.5S323,587,323,579.5"/>
<path d="M377,579.5c0-7.5,6-13.5,13.5-13.5s13.5,6,13.5,13.5s-6,13.5-13.5,13.5S377,587,377,579.5"/>
<path d="M458,579.5c0-7.5,6-13.5,13.5-13.5s13.5,6,13.5,13.5s-6,13.5-13.5,13.5S458,587,458,579.5"/>
<path d="M593,579.5c0-7.5,6-13.5,13.5-13.5s13.5,6,13.5,13.5s-6,13.5-13.5,13.5S593,587,593,579.5"/>
<path d="M674,579.5c0-7.5,6-13.5,13.5-13.5s13.5,6,13.5,13.5s-6,13.5-13.5,13.5S674,587,674,579.5"/>
<path d="M836,579.5c0-7.5,6-13.5,13.5-13.5s13.5,6,13.5,13.5s-6,13.5-13.5,13.5S836,587,836,579.5"/>
<path d="M890,579.5c0-7.5,6-13.5,13.5-13.5s13.5,6,13.5,13.5s-6,13.5-13.5,13.5S890,587,890,579.5"/>
<path d="M107,606.5c0-7.5,6-13.5,13.5-13.5s13.5,6,13.5,13.5s-6,13.5-13.5,13.5S107,614,107,606.5"/>
<path d="M134,606.5c0-7.5,6-13.5,13.5-13.5s13.5,6,13.5,13.5s-6,13.5-13.5,13.5S134,614,134,606.5"/>
<path d="M215,606.5c0-7.5,6-13.5,13.5-13.5s13.5,6,13.5,13.5s-6,13.5-13.5,13.5S215,614,215,606.5"/>
<path d="M296,606.5c0-7.5,6-13.5,13.5-13.5s13.5,6,13.5,13.5s-6,13.5-13.5,13.5S296,614,296,606.5"/>
<path d="M350,606.5c0-7.5,6-13.5,13.5-13.5s13.5,6,13.5,13.5s-6,13.5-13.5,13.5S350,614,350,606.5"/>
<path d="M404,606.5c0-7.5,6-13.5,13.5-13.5s13.5,6,13.5,13.5s-6,13.5-13.5,13.5S404,614,404,606.5"/>
<path d="M485,606.5c0-7.5,6-13.5,13.5-13.5s13.5,6,13.5,13.5s-6,13.5-13.5,13.5S485,614,485,606.5"/>
<path d="M512,606.5c0-7.5,6-13.5,13.5-13.5s13.5,6,13.5,13.5s-6,13.5-13.5,13.5S512,614,512,606.5"/>
<path d="M539,606.5c0-7.5,6-13.5,13.5-13.5s13.5,6,13.5,13.5s-6,13.5-13.5,13.5S539,614,539,606.5"/>
<path d="M620,606.5c0-7.5,6-13.5,13.5-13.5s13.5,6,13.5,13.5s-6,13.5-13.5,13.5S620,614,620,606.5"/>
<path d="M647,606.5c0-7.5,6-13.5,13.5-13.5s13.5,6,13.5,13.5s-6,13.5-13.5,13.5S647,614,647,606.5"/>
<path d="M701,606.5c0-7.5,6-13.5,13.5-13.5s13.5,6,13.5,13.5s-6,13.5-13.5,13.5S701,614,701,606.5"/>
<path d="M728,606.5c0-7.5,6-13.5,13.5-13.5s13.5,6,13.5,13.5s-6,13.5-13.5,13.5S728,614,728,606.5"/>
<path d="M755,606.5c0-7.5,6-13.5,13.5-13.5s13.5,6,13.5,13.5s-6,13.5-13.5,13.5S755,614,755,606.5"/>
<path d="M836,606.5c0-7.5,6-13.5,13.5-13.5s13.5,6,13.5,13.5s-6,13.5-13.5,13.5S836,614,836,606.5"/>
<path d="M863,606.5c0-7.5,6-13.5,13.5-13.5s13.5,6,13.5,13.5s-6,13.5-13.5,13.5S863,614,863,606.5"/>
<path d="M890,606.5c0-7.5,6-13.5,13.5-13.5s13.5,6,13.5,13.5s-6,13.5-13.5,13.5S890,614,890,606.5"/>
<path d="M917,606.5c0-7.5,6-13.5,13.5-13.5s13.5,6,13.5,13.5s-6,13.5-13.5,13.5S917,614,917,606.5"/>
<path d="M80,633.5c0-7.5,6-13.5,13.5-13.5s13.5,6,13.5,13.5S101,647,93.5,647S80,641,80,633.5"/>
<path d="M107,633.5c0-7.5,6-13.5,13.5-13.5s13.5,6,13.5,13.5s-6,13.5-13.5,13.5S107,641,107,633.5"/>
<path d="M161,633.5c0-7.5,6-13.5,13.5-13.5s13.5,6,13.5,13.5s-6,13.5-13.5,13.5S161,641,161,633.5"/>
<path d="M188,633.5c0-7.5,6-13.5,13.5-13.5s13.5,6,13.5,13.5s-6,13.5-13.5,13.5S188,641,188,633.5"/>
<path d="M269,633.5c0-7.5,6-13.5,13.5-13.5s13.5,6,13.5,13.5s-6,13.5-13.5,13.5S269,641,269,633.5"/>
<path d="M323,633.5c0-7.5,6-13.5,13.5-13.5s13.5,6,13.5,13.5s-6,13.5-13.5,13.5S323,641,323,633.5"/>
<path d="M350,633.5c0-7.5,6-13.5,13.5-13.5s13.5,6,13.5,13.5s-6,13.5-13.5,13.5S350,641,350,633.5"/>
<path d="M377,633.5c0-7.5,6-13.5,13.5-13.5s13.5,6,13.5,13.5s-6,13.5-13.5,13.5S377,641,377,633.5"/>
<path d="M404,633.5c0-7.5,6-13.5,13.5-13.5s13.5,6,13.5,13.5s-6,13.5-13.5,13.5S404,641,404,633.5"/>
<path d="M431,633.5c0-7.5,6-13.5,13.5-13.5s13.5,6,13.5,13.5s-6,13.5-13.5,13.5S431,641,431,633.5"/>
<path d="M674,633.5c0-7.5,6-13.5,13.5-13.5s13.5,6,13.5,13.5s-6,13.5-13.5,13.5S674,641,674,633.5"/>
<path d="M728,633.5c0-7.5,6-13.5,13.5-13.5s13.5,6,13.5,13.5s-6,13.5-13.5,13.5S728,641,728,633.5"/>
<path d="M809,633.5c0-7.5,6-13.5,13.5-13.5s13.5,6,13.5,13.5s-6,13.5-13.5,13.5S809,641,809,633.5"/>
<path d="M836,633.5c0-7.5,6-13.5,13.5-13.5s13.5,6,13.5,13.5s-6,13.5-13.5,13.5S836,641,836,633.5"/>
<path d="M863,633.5c0-7.5,6-13.5,13.5-13.5s13.5,6,13.5,13.5s-6,13.5-13.5,13.5S863,641,863,633.5"/>
<path d="M917,633.5c0-7.5,6-13.5,13.5-13.5s13.5,6,13.5,13.5s-6,13.5-13.5,13.5S917,641,917,633.5"/>
<path d="M944,633.5c0-7.5,6-13.5,13.5-13.5s13.5,6,13.5,13.5s-6,13.5-13.5,13.5S944,641,944,633.5"/>
<path d="M80,660.5c0-7.5,6-13.5,13.5-13.5s13.5,6,13.5,13.5S101,674,93.5,674S80,668,80,660.5L80,660.5"/>
<path d="M269,660.5c0-7.5,6-13.5,13.5-13.5s13.5,6,13.5,13.5s-6,13.5-13.5,13.5S269,668,269,660.5L269,660.5"/>
<path d="M350,660.5c0-7.5,6-13.5,13.5-13.5s13.5,6,13.5,13.5s-6,13.5-13.5,13.5S350,668,350,660.5L350,660.5"/>
<path d="M377,660.5c0-7.5,6-13.5,13.5-13.5s13.5,6,13.5,13.5s-6,13.5-13.5,13.5S377,668,377,660.5L377,660.5"/>
<path d="M404,660.5c0-7.5,6-13.5,13.5-13.5s13.5,6,13.5,13.5s-6,13.5-13.5,13.5S404,668,404,660.5L404,660.5"/>
<path d="M539,660.5c0-7.5,6-13.5,13.5-13.5s13.5,6,13.5,13.5s-6,13.5-13.5,13.5S539,668,539,660.5L539,660.5"/>
<path d="M566,660.5c0-7.5,6-13.5,13.5-13.5s13.5,6,13.5,13.5s-6,13.5-13.5,13.5S566,668,566,660.5L566,660.5"/>
<path d="M593,660.5c0-7.5,6-13.5,13.5-13.5s13.5,6,13.5,13.5s-6,13.5-13.5,13.5S593,668,593,660.5L593,660.5"/>
<path d="M647,660.5c0-7.5,6-13.5,13.5-13.5s13.5,6,13.5,13.5s-6,13.5-13.5,13.5S647,668,647,660.5L647,660.5"/>
<path d="M674,660.5c0-7.5,6-13.5,13.5-13.5s13.5,6,13.5,13.5s-6,13.5-13.5,13.5S674,668,674,660.5L674,660.5"/>
<path d="M755,660.5c0-7.5,6-13.5,13.5-13.5s13.5,6,13.5,13.5s-6,13.5-13.5,13.5S755,668,755,660.5L755,660.5"/>
<path d="M890,660.5c0-7.5,6-13.5,13.5-13.5s13.5,6,13.5,13.5s-6,13.5-13.5,13.5S890,668,890,660.5L890,660.5"/>
<path d="M917,660.5c0-7.5,6-13.5,13.5-13.5s13.5,6,13.5,13.5s-6,13.5-13.5,13.5S917,668,917,660.5L917,660.5"/>
<path d="M944,660.5c0-7.5,6-13.5,13.5-13.5s13.5,6,13.5,13.5s-6,13.5-13.5,13.5S944,668,944,660.5L944,660.5"/>
<path d="M80,687.5c0-7.5,6-13.5,13.5-13.5s13.5,6,13.5,13.5S101,701,93.5,701S80,695,80,687.5"/>
<path d="M134,687.5c0-7.5,6-13.5,13.5-13.5s13.5,6,13.5,13.5s-6,13.5-13.5,13.5S134,695,134,687.5"/>
<path d="M161,687.5c0-7.5,6-13.5,13.5-13.5s13.5,6,13.5,13.5s-6,13.5-13.5,13.5S161,695,161,687.5"/>
<path d="M188,687.5c0-7.5,6-13.5,13.5-13.5s13.5,6,13.5,13.5s-6,13.5-13.5,13.5S188,695,188,687.5"/>
<path d="M296,687.5c0-7.5,6-13.5,13.5-13.5s13.5,6,13.5,13.5s-6,13.5-13.5,13.5S296,695,296,687.5"/>
<path d="M323,687.5c0-7.5,6-13.5,13.5-13.5s13.5,6,13.5,13.5s-6,13.5-13.5,13.5S323,695,323,687.5"/>
<path d="M350,687.5c0-7.5,6-13.5,13.5-13.5s13.5,6,13.5,13.5s-6,13.5-13.5,13.5S350,695,350,687.5"/>
<path d="M377,687.5c0-7.5,6-13.5,13.5-13.5s13.5,6,13.5,13.5s-6,13.5-13.5,13.5S377,695,377,687.5"/>
<path d="M458,687.5c0-7.5,6-13.5,13.5-13.5s13.5,6,13.5,13.5s-6,13.5-13.5,13.5S458,695,458,687.5"/>
<path d="M539,687.5c0-7.5,6-13.5,13.5-13.5s13.5,6,13.5,13.5s-6,13.5-13.5,13.5S539,695,539,687.5"/>
<path d="M566,687.5c0-7.5,6-13.5,13.5-13.5s13.5,6,13.5,13.5s-6,13.5-13.5,13.5S566,695,566,687.5"/>
<path d="M593,687.5c0-7.5,6-13.5,13.5-13.5s13.5,6,13.5,13.5s-6,13.5-13.5,13.5S593,695,593,687.5"/>
<path d="M620,687.5c0-7.5,6-13.5,13.5-13.5s13.5,6,13.5,13.5s-6,13.5-13.5,13.5S620,695,620,687.5"/>
<path d="M701,687.5c0-7.5,6-13.5,13.5-13.5s13.5,6,13.5,13.5s-6,13.5-13.5,13.5S701,695,701,687.5"/>
<path d="M728,687.5c0-7.5,6-13.5,13.5-13.5s13.5,6,13.5,13.5s-6,13.5-13.5,13.5S728,695,728,687.5"/>
<path d="M836,687.5c0-7.5,6-13.5,13.5-13.5s13.5,6,13.5,13.5s-6,13.5-13.5,13.5S836,695,836,687.5"/>
<path d="M917,687.5c0-7.5,6-13.5,13.5-13.5s13.5,6,13.5,13.5s-6,13.5-13.5,13.5S917,695,917,687.5"/>
<path d="M80,714.5c0-7.5,6-13.5,13.5-13.5s13.5,6,13.5,13.5S101,728,93.5,728S80,722,80,714.5"/>
<path d="M134,714.5c0-7.5,6-13.5,13.5-13.5s13.5,6,13.5,13.5s-6,13.5-13.5,13.5S134,722,134,714.5"/>
<path d="M188,714.5c0-7.5,6-13.5,13.5-13.5s13.5,6,13.5,13.5s-6,13.5-13.5,13.5S188,722,188,714.5"/>
<path d="M323,714.5c0-7.5,6-13.5,13.5-13.5s13.5,6,13.5,13.5s-6,13.5-13.5,13.5S323,722,323,714.5"/>
<path d="M350,714.5c0-7.5,6-13.5,13.5-13.5s13.5,6,13.5,13.5s-6,13.5-13.5,13.5S350,722,350,714.5"/>
<path d="M404,714.5c0-7.5,6-13.5,13.5-13.5s13.5,6,13.5,13.5s-6,13.5-13.5,13.5S404,722,404,714.5"/>
<path d="M539,714.5c0-7.5,6-13.5,13.5-13.5s13.5,6,13.5,13.5s-6,13.5-13.5,13.5S539,722,539,714.5"/>
<path d="M593,714.5c0-7.5,6-13.5,13.5-13.5s13.5,6,13.5,13.5s-6,13.5-13.5,13.5S593,722,593,714.5"/>
<path d="M647,714.5c0-7.5,6-13.5,13.5-13.5s13.5,6,13.5,13.5s-6,13.5-13.5,13.5S647,722,647,714.5"/>
<path d="M701,714.5c0-7.5,6-13.5,13.5-13.5s13.5,6,13.5,13.5s-6,13.5-13.5,13.5S701,722,701,714.5"/>
<path d="M809,714.5c0-7.5,6-13.5,13.5-13.5s13.5,6,13.5,13.5s-6,13.5-13.5,13.5S809,722,809,714.5"/>
<path d="M863,714.5c0-7.5,6-13.5,13.5-13.5s13.5,6,13.5,13.5s-6,13.5-13.5,13.5S863,722,863,714.5"/>
<path d="M890,714.5c0-7.5,6-13.5,13.5-13.5s13.5,6,13.5,13.5s-6,13.5-13.5,13.5S890,722,890,714.5"/>
<path d="M80,741.5c0-7.5,6-13.5,13.5-13.5s13.5,6,13.5,13.5S101,755,93.5,755S80,749,80,741.5"/>
<path d="M134,741.5c0-7.5,6-13.5,13.5-13.5s13.5,6,13.5,13.5s-6,13.5-13.5,13.5S134,749,134,741.5"/>
<path d="M188,741.5c0-7.5,6-13.5,13.5-13.5s13.5,6,13.5,13.5s-6,13.5-13.5,13.5S188,749,188,741.5"/>
<path d="M215,741.5c0-7.5,6-13.5,13.5-13.5s13.5,6,13.5,13.5s-6,13.5-13.5,13.5S215,749,215,741.5"/>
<path d="M296,741.5c0-7.5,6-13.5,13.5-13.5s13.5,6,13.5,13.5s-6,13.5-13.5,13.5S296,749,296,741.5"/>
<path d="M323,741.5c0-7.5,6-13.5,13.5-13.5s13.5,6,13.5,13.5s-6,13.5-13.5,13.5S323,749,323,741.5"/>
<path d="M458,741.5c0-7.5,6-13.5,13.5-13.5s13.5,6,13.5,13.5s-6,13.5-13.5,13.5S458,749,458,741.5"/>
<path d="M512,741.5c0-7.5,6-13.5,13.5-13.5s13.5,6,13.5,13.5s-6,13.5-13.5,13.5S512,749,512,741.5"/>
<path d="M539,741.5c0-7.5,6-13.5,13.5-13.5s13.5,6,13.5,13.5s-6,13.5-13.5,13.5S539,749,539,741.5"/>
<path d="M620,741.5c0-7.5,6-13.5,13.5-13.5s13.5,6,13.5,13.5s-6,13.5-13.5,13.5S620,749,620,741.5"/>
<path d="M647,741.5c0-7.5,6-13.5,13.5-13.5s13.5,6,13.5,13.5s-6,13.5-13.5,13.5S647,749,647,741.5"/>
<path d="M674,741.5c0-7.5,6-13.5,13.5-13.5s13.5,6,13.5,13.5s-6,13.5-13.5,13.5S674,749,674,741.5"/>
<path d="M701,741.5c0-7.5,6-13.5,13.5-13.5s13.5,6,13.5,13.5s-6,13.5-13.5,13.5S701,749,701,741.5"/>
<path d="M296,768.5c0-7.5,6-13.5,13.5-13.5s13.5,6,13.5,13.5l0,0c0,7.5-6,13.5-13.5,13.5S296,776,296,768.5"/>
<path d="M323,768.5c0-7.5,6-13.5,13.5-13.5s13.5,6,13.5,13.5l0,0c0,7.5-6,13.5-13.5,13.5S323,776,323,768.5"/>
<path d="M350,768.5c0-7.5,6-13.5,13.5-13.5s13.5,6,13.5,13.5l0,0c0,7.5-6,13.5-13.5,13.5S350,776,350,768.5"/>
<path d="M431,768.5c0-7.5,6-13.5,13.5-13.5s13.5,6,13.5,13.5l0,0c0,7.5-6,13.5-13.5,13.5S431,776,431,768.5"/>
<path d="M512,768.5c0-7.5,6-13.5,13.5-13.5s13.5,6,13.5,13.5l0,0c0,7.5-6,13.5-13.5,13.5S512,776,512,768.5"/>
<path d="M539,768.5c0-7.5,6-13.5,13.5-13.5s13.5,6,13.5,13.5l0,0c0,7.5-6,13.5-13.5,13.5S539,776,539,768.5"/>
<path d="M566,768.5c0-7.5,6-13.5,13.5-13.5s13.5,6,13.5,13.5l0,0c0,7.5-6,13.5-13.5,13.5S566,776,566,768.5"/>
<path d="M593,768.5c0-7.5,6-13.5,13.5-13.5s13.5,6,13.5,13.5l0,0c0,7.5-6,13.5-13.5,13.5S593,776,593,768.5"/>
<path d="M647,768.5c0-7.5,6-13.5,13.5-13.5s13.5,6,13.5,13.5l0,0c0,7.5-6,13.5-13.5,13.5S647,776,647,768.5"/>
<path d="M701,768.5c0-7.5,6-13.5,13.5-13.5s13.5,6,13.5,13.5l0,0c0,7.5-6,13.5-13.5,13.5S701,776,701,768.5"/>
<path d="M863,768.5c0-7.5,6-13.5,13.5-13.5s13.5,6,13.5,13.5l0,0c0,7.5-6,13.5-13.5,13.5S863,776,863,768.5"/>
<path d="M917,768.5c0-7.5,6-13.5,13.5-13.5s13.5,6,13.5,13.5l0,0c0,7.5-6,13.5-13.5,13.5S917,776,917,768.5"/>
<path d="M944,768.5c0-7.5,6-13.5,13.5-13.5s13.5,6,13.5,13.5l0,0c0,7.5-6,13.5-13.5,13.5S944,776,944,768.5"/>
<path d="M350,795.5c0-7.5,6-13.5,13.5-13.5s13.5,6,13.5,13.5s-6,13.5-13.5,13.5S350,803,350,795.5"/>
<path d="M377,795.5c0-7.5,6-13.5,13.5-13.5s13.5,6,13.5,13.5s-6,13.5-13.5,13.5S377,803,377,795.5"/>
<path d="M404,795.5c0-7.5,6-13.5,13.5-13.5s13.5,6,13.5,13.5s-6,13.5-13.5,13.5S404,803,404,795.5"/>
<path d="M431,795.5c0-7.5,6-13.5,13.5-13.5s13.5,6,13.5,13.5s-6,13.5-13.5,13.5S431,803,431,795.5"/>
<path d="M485,795.5c0-7.5,6-13.5,13.5-13.5s13.5,6,13.5,13.5s-6,13.5-13.5,13.5S485,803,485,795.5"/>
<path d="M512,795.5c0-7.5,6-13.5,13.5-13.5s13.5,6,13.5,13.5s-6,13.5-13.5,13.5S512,803,512,795.5"/>
<path d="M566,795.5c0-7.5,6-13.5,13.5-13.5s13.5,6,13.5,13.5s-6,13.5-13.5,13.5S566,803,566,795.5"/>
<path d="M620,795.5c0-7.5,6-13.5,13.5-13.5s13.5,6,13.5,13.5s-6,13.5-13.5,13.5S620,803,620,795.5"/>
<path d="M647,795.5c0-7.5,6-13.5,13.5-13.5s13.5,6,13.5,13.5s-6,13.5-13.5,13.5S647,803,647,795.5"/>
<path d="M863,795.5c0-7.5,6-13.5,13.5-13.5s13.5,6,13.5,13.5s-6,13.5-13.5,13.5S863,803,863,795.5"/>
<path d="M917,795.5c0-7.5,6-13.5,13.5-13.5s13.5,6,13.5,13.5s-6,13.5-13.5,13.5S917,803,917,795.5"/>
<path d="M350,822.5c0-7.5,6-13.5,13.5-13.5s13.5,6,13.5,13.5s-6,13.5-13.5,13.5S350,830,350,822.5"/>
<path d="M431,822.5c0-7.5,6-13.5,13.5-13.5s13.5,6,13.5,13.5s-6,13.5-13.5,13.5S431,830,431,822.5"/>
<path d="M458,822.5c0-7.5,6-13.5,13.5-13.5s13.5,6,13.5,13.5s-6,13.5-13.5,13.5S458,830,458,822.5"/>
<path d="M485,822.5c0-7.5,6-13.5,13.5-13.5s13.5,6,13.5,13.5s-6,13.5-13.5,13.5S485,830,485,822.5"/>
<path d="M512,822.5c0-7.5,6-13.5,13.5-13.5s13.5,6,13.5,13.5s-6,13.5-13.5,13.5S512,830,512,822.5"/>
<path d="M539,822.5c0-7.5,6-13.5,13.5-13.5s13.5,6,13.5,13.5s-6,13.5-13.5,13.5S539,830,539,822.5"/>
<path d="M620,822.5c0-7.5,6-13.5,13.5-13.5s13.5,6,13.5,13.5s-6,13.5-13.5,13.5S620,830,620,822.5"/>
<path d="M647,822.5c0-7.5,6-13.5,13.5-13.5s13.5,6,13.5,13.5s-6,13.5-13.5,13.5S647,830,647,822.5"/>
<path d="M674,822.5c0-7.5,6-13.5,13.5-13.5s13.5,6,13.5,13.5s-6,13.5-13.5,13.5S674,830,674,822.5"/>
<path d="M701,822.5c0-7.5,6-13.5,13.5-13.5s13.5,6,13.5,13.5s-6,13.5-13.5,13.5S701,830,701,822.5"/>
<path d="M890,822.5c0-7.5,6-13.5,13.5-13.5s13.5,6,13.5,13.5s-6,13.5-13.5,13.5S890,830,890,822.5"/>
<path d="M917,822.5c0-7.5,6-13.5,13.5-13.5s13.5,6,13.5,13.5s-6,13.5-13.5,13.5S917,830,917,822.5"/>
<path d="M944,822.5c0-7.5,6-13.5,13.5-13.5s13.5,6,13.5,13.5s-6,13.5-13.5,13.5S944,830,944,822.5"/>
<path d="M296,849.5c0-7.5,6-13.5,13.5-13.5s13.5,6,13.5,13.5s-6,13.5-13.5,13.5S296,857,296,849.5"/>
<path d="M323,849.5c0-7.5,6-13.5,13.5-13.5s13.5,6,13.5,13.5s-6,13.5-13.5,13.5S323,857,323,849.5"/>
<path d="M431,849.5c0-7.5,6-13.5,13.5-13.5s13.5,6,13.5,13.5s-6,13.5-13.5,13.5S431,857,431,849.5"/>
<path d="M458,849.5c0-7.5,6-13.5,13.5-13.5s13.5,6,13.5,13.5s-6,13.5-13.5,13.5S458,857,458,849.5"/>
<path d="M485,849.5c0-7.5,6-13.5,13.5-13.5s13.5,6,13.5,13.5s-6,13.5-13.5,13.5S485,857,485,849.5"/>
<path d="M512,849.5c0-7.5,6-13.5,13.5-13.5s13.5,6,13.5,13.5s-6,13.5-13.5,13.5S512,857,512,849.5"/>
<path d="M593,849.5c0-7.5,6-13.5,13.5-13.5s13.5,6,13.5,13.5s-6,13.5-13.5,13.5S593,857,593,849.5"/>
<path d="M620,849.5c0-7.5,6-13.5,13.5-13.5s13.5,6,13.5,13.5s-6,13.5-13.5,13.5S620,857,620,849.5"/>
<path d="M647,849.5c0-7.5,6-13.5,13.5-13.5s13.5,6,13.5,13.5s-6,13.5-13.5,13.5S647,857,647,849.5"/>
<path d="M917,849.5c0-7.5,6-13.5,13.5-13.5s13.5,6,13.5,13.5s-6,13.5-13.5,13.5S917,857,917,849.5"/>
<path d="M944,849.5c0-7.5,6-13.5,13.5-13.5s13.5,6,13.5,13.5s-6,13.5-13.5,13.5S944,857,944,849.5"/>
<path d="M296,876.5c0-7.5,6-13.5,13.5-13.5s13.5,6,13.5,13.5s-6,13.5-13.5,13.5S296,884,296,876.5"/>
<path d="M323,876.5c0-7.5,6-13.5,13.5-13.5s13.5,6,13.5,13.5s-6,13.5-13.5,13.5S323,884,323,876.5"/>
<path d="M404,876.5c0-7.5,6-13.5,13.5-13.5s13.5,6,13.5,13.5s-6,13.5-13.5,13.5S404,884,404,876.5"/>
<path d="M458,876.5c0-7.5,6-13.5,13.5-13.5s13.5,6,13.5,13.5s-6,13.5-13.5,13.5S458,884,458,876.5"/>
<path d="M539,876.5c0-7.5,6-13.5,13.5-13.5s13.5,6,13.5,13.5s-6,13.5-13.5,13.5S539,884,539,876.5"/>
<path d="M593,876.5c0-7.5,6-13.5,13.5-13.5s13.5,6,13.5,13.5s-6,13.5-13.5,13.5S593,884,593,876.5"/>
<path d="M674,876.5c0-7.5,6-13.5,13.5-13.5s13.5,6,13.5,13.5s-6,13.5-13.5,13.5S674,884,674,876.5"/>
<path d="M755,876.5c0-7.5,6-13.5,13.5-13.5s13.5,6,13.5,13.5s-6,13.5-13.5,13.5S755,884,755,876.5"/>
<path d="M836,876.5c0-7.5,6-13.5,13.5-13.5s13.5,6,13.5,13.5s-6,13.5-13.5,13.5S836,884,836,876.5"/>
<path d="M890,876.5c0-7.5,6-13.5,13.5-13.5s13.5,6,13.5,13.5s-6,13.5-13.5,13.5S890,884,890,876.5"/>
<path d="M917,876.5c0-7.5,6-13.5,13.5-13.5s13.5,6,13.5,13.5s-6,13.5-13.5,13.5S917,884,917,876.5"/>
<path d="M296,903.5c0-7.5,6-13.5,13.5-13.5s13.5,6,13.5,13.5s-6,13.5-13.5,13.5S296,911,296,903.5"/>
<path d="M377,903.5c0-7.5,6-13.5,13.5-13.5s13.5,6,13.5,13.5s-6,13.5-13.5,13.5S377,911,377,903.5"/>
<path d="M485,903.5c0-7.5,6-13.5,13.5-13.5s13.5,6,13.5,13.5s-6,13.5-13.5,13.5S485,911,485,903.5"/>
<path d="M566,903.5c0-7.5,6-13.5,13.5-13.5s13.5,6,13.5,13.5s-6,13.5-13.5,13.5S566,911,566,903.5"/>
<path d="M593,903.5c0-7.5,6-13.5,13.5-13.5s13.5,6,13.5,13.5s-6,13.5-13.5,13.5S593,911,593,903.5"/>
<path d="M674,903.5c0-7.5,6-13.5,13.5-13.5s13.5,6,13.5,13.5s-6,13.5-13.5,13.5S674,911,674,903.5"/>
<path d="M728,903.5c0-7.5,6-13.5,13.5-13.5s13.5,6,13.5,13.5s-6,13.5-13.5,13.5S728,911,728,903.5"/>
<path d="M755,903.5c0-7.5,6-13.5,13.5-13.5s13.5,6,13.5,13.5s-6,13.5-13.5,13.5S755,911,755,903.5"/>
<path d="M782,903.5c0-7.5,6-13.5,13.5-13.5s13.5,6,13.5,13.5s-6,13.5-13.5,13.5S782,911,782,903.5"/>
<path d="M863,903.5c0-7.5,6-13.5,13.5-13.5s13.5,6,13.5,13.5s-6,13.5-13.5,13.5S863,911,863,903.5"/>
<path d="M890,903.5c0-7.5,6-13.5,13.5-13.5s13.5,6,13.5,13.5s-6,13.5-13.5,13.5S890,911,890,903.5"/>
<path d="M323,930.5c0-7.5,6-13.5,13.5-13.5s13.5,6,13.5,13.5s-6,13.5-13.5,13.5S323,938,323,930.5"/>
<path d="M350,930.5c0-7.5,6-13.5,13.5-13.5s13.5,6,13.5,13.5s-6,13.5-13.5,13.5S350,938,350,930.5"/>
<path d="M377,930.5c0-7.5,6-13.5,13.5-13.5s13.5,6,13.5,13.5s-6,13.5-13.5,13.5S377,938,377,930.5"/>
<path d="M431,930.5c0-7.5,6-13.5,13.5-13.5s13.5,6,13.5,13.5s-6,13.5-13.5,13.5S431,938,431,930.5"/>
<path d="M458,930.5c0-7.5,6-13.5,13.5-13.5s13.5,6,13.5,13.5s-6,13.5-13.5,13.5S458,938,458,930.5"/>
<path d="M539,930.5c0-7.5,6-13.5,13.5-13.5s13.5,6,13.5,13.5s-6,13.5-13.5,13.5S539,938,539,930.5"/>
<path d="M620,930.5c0-7.5,6-13.5,13.5-13.5s13.5,6,13.5,13.5s-6,13.5-13.5,13.5S620,938,620,930.5"/>
<path d="M755,930.5c0-7.5,6-13.5,13.5-13.5s13.5,6,13.5,13.5s-6,13.5-13.5,13.5S755,938,755,930.5"/>
<path d="M809,930.5c0-7.5,6-13.5,13.5-13.5s13.5,6,13.5,13.5s-6,13.5-13.5,13.5S809,938,809,930.5"/>
<path d="M890,930.5c0-7.5,6-13.5,13.5-13.5s13.5,6,13.5,13.5s-6,13.5-13.5,13.5S890,938,890,930.5"/>
<path d="M323,957.5c0-7.5,6-13.5,13.5-13.5s13.5,6,13.5,13.5s-6,13.5-13.5,13.5S323,965,323,957.5"/>
<path d="M350,957.5c0-7.5,6-13.5,13.5-13.5s13.5,6,13.5,13.5s-6,13.5-13.5,13.5S350,965,350,957.5"/>
<path d="M377,957.5c0-7.5,6-13.5,13.5-13.5s13.5,6,13.5,13.5s-6,13.5-13.5,13.5S377,965,377,957.5"/>
<path d="M404,957.5c0-7.5,6-13.5,13.5-13.5s13.5,6,13.5,13.5s-6,13.5-13.5,13.5S404,965,404,957.5"/>
<path d="M431,957.5c0-7.5,6-13.5,13.5-13.5s13.5,6,13.5,13.5s-6,13.5-13.5,13.5S431,965,431,957.5"/>
<path d="M485,957.5c0-7.5,6-13.5,13.5-13.5s13.5,6,13.5,13.5s-6,13.5-13.5,13.5S485,965,485,957.5"/>
<path d="M593,957.5c0-7.5,6-13.5,13.5-13.5s13.5,6,13.5,13.5s-6,13.5-13.5,13.5S593,965,593,957.5"/>
<path d="M647,957.5c0-7.5,6-13.5,13.5-13.5s13.5,6,13.5,13.5s-6,13.5-13.5,13.5S647,965,647,957.5"/>
<path d="M674,957.5c0-7.5,6-13.5,13.5-13.5s13.5,6,13.5,13.5s-6,13.5-13.5,13.5S674,965,674,957.5"/>
<path d="M701,957.5c0-7.5,6-13.5,13.5-13.5s13.5,6,13.5,13.5s-6,13.5-13.5,13.5S701,965,701,957.5"/>
<path d="M728,957.5c0-7.5,6-13.5,13.5-13.5s13.5,6,13.5,13.5s-6,13.5-13.5,13.5S728,965,728,957.5"/>
<path d="M863,957.5c0-7.5,6-13.5,13.5-13.5s13.5,6,13.5,13.5s-6,13.5-13.5,13.5S863,965,863,957.5"/>
<path d="M890,957.5c0-7.5,6-13.5,13.5-13.5s13.5,6,13.5,13.5s-6,13.5-13.5,13.5S890,965,890,957.5"/>
<path d="M917,957.5c0-7.5,6-13.5,13.5-13.5s13.5,6,13.5,13.5s-6,13.5-13.5,13.5S917,965,917,957.5"/>
<path class="st0" d="M140.8,93.5h70.9c26.1,0,47.2,21.2,47.2,47.2l0,0v70.9c0,26.1-21.2,47.3-47.2,47.3l0,0h-70.9
	c-26.1,0-47.2-21.2-47.2-47.3l0,0v-70.9C93.5,114.7,114.7,93.5,140.8,93.5"/>
<path class="st0" d="M842.8,93.5h70.9c26.1,0,47.2,21.2,47.2,47.2l0,0v70.9c0,26.1-21.2,47.3-47.2,47.3l0,0h-70.9
	c-26.1,0-47.2-21.2-47.2-47.3l0,0v-70.9C795.5,114.7,816.7,93.5,842.8,93.5"/>
<path class="st0" d="M140.8,795.5h70.9c26.1,0,47.2,21.2,47.2,47.2l0,0v70.9c0,26.1-21.2,47.2-47.2,47.2l0,0h-70.9
	c-26.1,0-47.2-21.2-47.2-47.2l0,0v-70.9C93.5,816.7,114.7,795.5,140.8,795.5L140.8,795.5"/>
<path d="M154.2,134h40.5c11.2,0,20.2,9.1,20.2,20.2v40.5c0,11.2-9.1,20.2-20.2,20.2h-40.5c-11.2,0-20.2-9.1-20.2-20.2v-40.5
	C134,143.1,143.1,134,154.2,134z"/>
<path d="M856.2,134h40.5c11.2,0,20.2,9.1,20.2,20.2v40.5c0,11.2-9.1,20.2-20.2,20.2h-40.5c-11.2,0-20.2-9.1-20.2-20.2v-40.5
	C836,143.1,845.1,134,856.2,134z"/>
<path d="M154.2,836h40.5c11.2,0,20.2,9.1,20.2,20.2v40.5c0,11.2-9.1,20.2-20.2,20.2h-40.5c-11.2,0-20.2-9.1-20.2-20.2v-40.5
	C134,845.1,143.1,836,154.2,836z"/>
<path d="M296,255.5c0-7.5,6-13.5,13.5-13.5s13.5,6,13.5,13.5c0,7.5-6,13.5-13.5,13.5S296,263,296,255.5"/>
<path d="M242,309.5c0-7.5,6-13.5,13.5-13.5s13.5,6,13.5,13.5s-6,13.5-13.5,13.5S242,317,242,309.5"/>
<path d="M350,255.5c0-7.5,6-13.5,13.5-13.5s13.5,6,13.5,13.5c0,7.5-6,13.5-13.5,13.5S350,263,350,255.5"/>
<path d="M242,363.5c0-7.5,6-13.5,13.5-13.5s13.5,6,13.5,13.5s-6,13.5-13.5,13.5S242,371,242,363.5"/>
<path d="M404,255.5c0-7.5,6-13.5,13.5-13.5s13.5,6,13.5,13.5c0,7.5-6,13.5-13.5,13.5S404,263,404,255.5"/>
<path d="M242,417.5c0-7.5,6-13.5,13.5-13.5s13.5,6,13.5,13.5s-6,13.5-13.5,13.5S242,425,242,417.5"/>
<path d="M458,255.5c0-7.5,6-13.5,13.5-13.5s13.5,6,13.5,13.5c0,7.5-6,13.5-13.5,13.5S458,263,458,255.5"/>
<path d="M242,471.5c0-7.5,6-13.5,13.5-13.5s13.5,6,13.5,13.5s-6,13.5-13.5,13.5S242,479,242,471.5"/>
<path d="M512,255.5c0-7.5,6-13.5,13.5-13.5s13.5,6,13.5,13.5c0,7.5-6,13.5-13.5,13.5S512,263,512,255.5"/>
<path d="M242,525.5c0-7.5,6-13.5,13.5-13.5s13.5,6,13.5,13.5s-6,13.5-13.5,13.5S242,533,242,525.5"/>
<path d="M566,255.5c0-7.5,6-13.5,13.5-13.5s13.5,6,13.5,13.5c0,7.5-6,13.5-13.5,13.5S566,263,566,255.5"/>
<path d="M242,579.5c0-7.5,6-13.5,13.5-13.5s13.5,6,13.5,13.5s-6,13.5-13.5,13.5S242,587,242,579.5"/>
<path d="M620,255.5c0-7.5,6-13.5,13.5-13.5s13.5,6,13.5,13.5c0,7.5-6,13.5-13.5,13.5S620,263,620,255.5"/>
<path d="M242,633.5c0-7.5,6-13.5,13.5-13.5s13.5,6,13.5,13.5s-6,13.5-13.5,13.5S242,641,242,633.5"/>
<path d="M674,255.5c0-7.5,6-13.5,13.5-13.5s13.5,6,13.5,13.5c0,7.5-6,13.5-13.5,13.5S674,263,674,255.5"/>
<path d="M242,687.5c0-7.5,6-13.5,13.5-13.5s13.5,6,13.5,13.5s-6,13.5-13.5,13.5S242,695,242,687.5"/>
<path d="M728,255.5c0-7.5,6-13.5,13.5-13.5s13.5,6,13.5,13.5c0,7.5-6,13.5-13.5,13.5S728,263,728,255.5"/>
<path d="M242,741.5c0-7.5,6-13.5,13.5-13.5s13.5,6,13.5,13.5s-6,13.5-13.5,13.5S242,749,242,741.5"/>
<path d="M728,741.5c0-7.5,6-13.5,13.5-13.5s13.5,6,13.5,13.5s-6,13.5-13.5,13.5S728,749,728,741.5"/>
<path d="M728,768.5c0-7.5,6-13.5,13.5-13.5s13.5,6,13.5,13.5l0,0c0,7.5-6,13.5-13.5,13.5S728,776,728,768.5"/>
<path d="M728,795.5c0-7.5,6-13.5,13.5-13.5s13.5,6,13.5,13.5s-6,13.5-13.5,13.5S728,803,728,795.5"/>
<path d="M728,822.5c0-7.5,6-13.5,13.5-13.5s13.5,6,13.5,13.5s-6,13.5-13.5,13.5S728,830,728,822.5"/>
<path d="M836,768.5c0-7.5,6-13.5,13.5-13.5s13.5,6,13.5,13.5l0,0c0,7.5-6,13.5-13.5,13.5S836,776,836,768.5"/>
<path d="M836,795.5c0-7.5,6-13.5,13.5-13.5s13.5,6,13.5,13.5s-6,13.5-13.5,13.5S836,803,836,795.5"/>
<path d="M836,822.5c0-7.5,6-13.5,13.5-13.5s13.5,6,13.5,13.5s-6,13.5-13.5,13.5S836,830,836,822.5"/>
<path d="M836,849.5c0-7.5,6-13.5,13.5-13.5s13.5,6,13.5,13.5s-6,13.5-13.5,13.5S836,857,836,849.5"/>
<path d="M755,741.5c0-7.5,6-13.5,13.5-13.5s13.5,6,13.5,13.5s-6,13.5-13.5,13.5S755,749,755,741.5"/>
<path d="M782,741.5c0-7.5,6-13.5,13.5-13.5s13.5,6,13.5,13.5s-6,13.5-13.5,13.5S782,749,782,741.5"/>
<path d="M809,741.5c0-7.5,6-13.5,13.5-13.5s13.5,6,13.5,13.5s-6,13.5-13.5,13.5S809,749,809,741.5"/>
<path d="M836,741.5c0-7.5,6-13.5,13.5-13.5s13.5,6,13.5,13.5s-6,13.5-13.5,13.5S836,749,836,741.5"/>
<path d="M728,849.5c0-7.5,6-13.5,13.5-13.5s13.5,6,13.5,13.5s-6,13.5-13.5,13.5S728,857,728,849.5"/>
<path d="M755,849.5c0-7.5,6-13.5,13.5-13.5s13.5,6,13.5,13.5s-6,13.5-13.5,13.5S755,857,755,849.5"/>
<path d="M782,849.5c0-7.5,6-13.5,13.5-13.5s13.5,6,13.5,13.5s-6,13.5-13.5,13.5S782,857,782,849.5"/>
<path d="M809,849.5c0-7.5,6-13.5,13.5-13.5s13.5,6,13.5,13.5s-6,13.5-13.5,13.5S809,857,809,849.5"/>
<path d="M782,795.5c0-7.5,6-13.5,13.5-13.5s13.5,6,13.5,13.5s-6,13.5-13.5,13.5S782,803,782,795.5"/>
</svg>
