<?xml version="1.0" encoding="UTF-8"?><svg id="Layer_2" xmlns="http://www.w3.org/2000/svg" viewBox="0 0 428.8 428.8"><defs><style>.cls-1{fill:#323232;}.cls-2{fill:none;stroke:#323232;stroke-miterlimit:10;stroke-width:28.8px;}.cls-3{fill:#feebca;opacity:.5;}</style></defs><g id="Layer_1-2"><g><circle id="tan_back" class="cls-3" cx="214.4" cy="214.4" r="200"/><g><path class="cls-1" d="M115.3061,218.6101v-80.9062h38.625v73.0312c0,7.875-.2505,13.875-.75,18-.501,4.125-1.2188,7.7197-2.1562,10.7812-3.2505,10.6265-9.0322,18.9702-17.3438,25.0317-8.313,6.0625-18.0322,9.0938-29.1562,9.0938-13.8135,0-25.4062-4.8428-34.7812-14.5312-4.6875-4.749-8.2822-10.187-10.7812-16.313-2.5005-6.1245-3.75-12.5303-3.75-19.2188,0-15.0615,4.5938-27.1875,13.7812-36.375,9.624-9.624,21.8745-14.2178,36.75-13.7812l3,.0938c.999,0,1.6553,.063,1.9688,.1875v40.875c-1.938-1.5615-4.0005-2.3438-6.1875-2.3438-3.126,0-5.6572,1.0942-7.5938,3.2812-1.938,2.1885-2.9062,4.875-2.9062,8.0625s1.0312,5.8447,3.0938,7.9688c2.0625,2.1255,4.5308,3.1875,7.4062,3.1875,5.4375,0,8.8125-2.9062,10.125-8.7188,.4365-1.9365,.6562-4.4062,.6562-7.4062Z"/><path class="cls-1" d="M164.7123,144.4538c0-6.375,2.2178-11.7495,6.6562-16.125,4.437-4.374,9.8438-6.5625,16.2188-6.5625s11.7334,2.1885,16.0781,6.5625c4.3433,4.3755,6.5156,9.75,6.5156,16.125s-2.1724,11.751-6.5156,16.125c-4.3447,4.3755-9.7031,6.5625-16.0781,6.5625s-11.7817-2.187-16.2188-6.5625c-4.4385-4.374-6.6562-9.75-6.6562-16.125Zm3.4688,127.5005v-97.688h38.625v97.688h-38.625Z"/><path class="cls-1" d="M279.3686,227.6101c0-10.875-3.5625-16.3125-10.6875-16.3125-3,0-5.5166,1.125-7.5469,3.375-2.0317,2.25-3.0469,4.9072-3.0469,7.9688,0,3.2505,.999,5.9062,3,7.9688,1.9995,2.0625,4.5308,3.0938,7.5938,3.0938,2.3745,0,4.4678-.687,6.2812-2.0625v40.5005l-.5625,.0938-6,.2812c-13.875,.624-25.6875-3.9688-35.4375-13.7812-9.126-9.1875-13.6875-20.9683-13.6875-35.3442,0-9.1875,2.25-17.8433,6.75-25.9688,4.3125-7.812,10.2656-13.9526,17.8594-18.4219,7.5938-4.4678,15.8584-6.7031,24.7969-6.7031,11.0625,0,20.7495,3.063,29.0625,9.1875,8.3115,6.126,14.0933,14.4697,17.3438,25.0312,.8115,2.751,1.5938,6.8438,2.3438,12.2812,.375,3.2505,.5625,8.8125,.5625,16.6875v36.4692h-38.625v-44.3442Z"/><path class="cls-1" d="M331.8686,271.9543V137.7038h38.625v134.2505h-38.625Z"/></g><circle id="circle" class="cls-2" cx="214.4" cy="214.4" r="200"/></g></g></svg>