<?xml version="1.0" encoding="UTF-8"?><svg id="Layer_2" xmlns="http://www.w3.org/2000/svg" viewBox="0 0 461.0216 505.5719"><defs><style>.cls-1{fill:#323232;}.cls-2{fill:none;stroke:#323232;stroke-miterlimit:10;stroke-width:28.8px;}</style></defs><g id="Layer_1-2"><g><g><path class="cls-1" d="M133.2168,218.61v-80.9062h38.625v73.0312c0,7.875-.2505,13.875-.75,18-.501,4.125-1.2188,7.7197-2.1562,10.7812-3.2505,10.626-9.0322,18.9697-17.3438,25.0312-8.313,6.0625-18.0322,9.0938-29.1562,9.0938-13.8135,0-25.4062-4.8428-34.7812-14.5312-4.6875-4.749-8.2822-10.1865-10.7812-16.3125-2.5005-6.1245-3.75-12.5303-3.75-19.2188,0-15.0615,4.5938-27.1875,13.7812-36.375,9.624-9.624,21.8745-14.2178,36.75-13.7812l3,.0938c.999,0,1.6553,.063,1.9688,.1875v40.875c-1.938-1.5615-4.0005-2.3438-6.1875-2.3438-3.126,0-5.6572,1.0942-7.5938,3.2812-1.938,2.1885-2.9062,4.875-2.9062,8.0625s1.0312,5.8447,3.0938,7.9688c2.0625,2.1255,4.5308,3.1875,7.4062,3.1875,5.4375,0,8.8125-2.9062,10.125-8.7188,.4365-1.9365,.6562-4.4062,.6562-7.4062Z"/><path class="cls-1" d="M182.623,144.4537c0-6.375,2.2178-11.7495,6.6562-16.125,4.437-4.374,9.8438-6.5625,16.2188-6.5625s11.7334,2.1885,16.0781,6.5625c4.3433,4.3755,6.5156,9.75,6.5156,16.125s-2.1724,11.751-6.5156,16.125c-4.3447,4.3755-9.7031,6.5625-16.0781,6.5625s-11.7817-2.187-16.2188-6.5625c-4.4385-4.374-6.6562-9.75-6.6562-16.125Zm3.4688,127.5v-97.6875h38.625v97.6875h-38.625Z"/><path class="cls-1" d="M297.2793,227.61c0-10.875-3.5625-16.3125-10.6875-16.3125-3,0-5.5166,1.125-7.5469,3.375-2.0317,2.25-3.0469,4.9072-3.0469,7.9688,0,3.2505,.999,5.9062,3,7.9688,1.9995,2.0625,4.5308,3.0938,7.5938,3.0938,2.3745,0,4.4678-.687,6.2812-2.0625v40.5l-.5625,.0938-6,.2812c-13.875,.624-25.6875-3.9688-35.4375-13.7812-9.126-9.1875-13.6875-20.9678-13.6875-35.3438,0-9.1875,2.25-17.8433,6.75-25.9688,4.3125-7.812,10.2656-13.9526,17.8594-18.4219,7.5938-4.4678,15.8584-6.7031,24.7969-6.7031,11.0625,0,20.7495,3.063,29.0625,9.1875,8.3115,6.126,14.0933,14.4697,17.3438,25.0312,.8115,2.751,1.5938,6.8438,2.3438,12.2812,.375,3.2505,.5625,8.8125,.5625,16.6875v36.4688h-38.625v-44.3438Z"/><path class="cls-1" d="M349.7793,271.9537V137.7037h38.625v134.25h-38.625Z"/></g><circle id="circle" class="cls-2" cx="232.3105" cy="214.4" r="200"/><g><path class="cls-1" d="M0,389.6744l27.9531-24.7012c5.4233-4.792,11.1226-7.125,17.0972-7,6.1328,.1348,11.5742,2.8906,16.3228,8.2646,3.9849,4.5098,6.2163,9.5186,6.6929,15.0283,.54,6.0898-1.3604,11.0547-5.7012,14.8906-3.7939,3.3525-8.2197,4.1846-13.2754,2.498,1.1611,2.8018,1.332,5.3535,.5132,7.6533-.7202,1.9873-2.3032,4.0615-4.748,6.2217l-13.8462,12.2354-12.4595-14.0996,11.9185-10.5303c1.5381-1.3604,2.2461-2.6611,2.124-3.9053-.0952-1.041-.8691-2.3848-2.3213-4.0283l-.5586-.6328,11.1279-9.833,.6143,.6953c2.7559,3.1201,5.3047,3.6455,7.6436,1.5781,.9688-.8555,1.4873-1.9053,1.5547-3.1465,.0664-1.2412-.3291-2.3467-1.1855-3.3154-1.1172-1.2656-2.3154-1.8018-3.5938-1.6094-1.2793,.1914-2.8994,1.1543-4.8628,2.8896l-28.4106,25.1045-12.5991-14.2578Z"/><path class="cls-1" d="M97.0396,421.4645l-2.9375-2.2695c-3.0264-2.3389-5.5107-3.8857-7.4517-4.6387-2.8921-1.1338-5.7378-1.1992-8.5366-.2002l15.2881,11.8154-9.0283,11.6836-15.355-11.8672c-.3423,2.9717,.4058,5.7529,2.2417,8.3447,1.2686,1.7617,3.4053,3.8037,6.4092,6.126l2.938,2.2705-10.2417,13.251-1.2676-.9795c-8.5244-6.5869-13.8706-12.8691-16.04-18.8457-1.7744-4.9258-2.3164-9.8945-1.6245-14.9053,.6909-5.0107,2.6187-9.5635,5.7827-13.6592,6.5869-8.5225,15.4336-12.2422,26.54-11.1592,4.6509,.4658,10.0176,2.6045,16.1001,6.417,1.9624,1.2314,4.0229,2.6826,6.1821,4.3506l1.2676,.9805-10.2666,13.2852Z"/><path class="cls-1" d="M134.5356,442.7691l-3.2109-1.6885c-10.1826-5.3516-17.1772-4.4062-20.9844,2.8389-3.8354,7.2949-.6611,13.6182,9.521,18.9697l3.2119,1.6875-8.3228,15.834-1.4185-.7461c-9.5356-5.0117-15.8892-10.2734-19.061-15.7852-2.5996-4.5439-3.9932-9.3438-4.1797-14.3984s.9238-9.8721,3.3311-14.4531c5.0117-9.5352,13.0811-14.7305,24.207-15.5859,4.6621-.3457,10.3174,.832,16.9688,3.5322,2.1455,.874,4.4258,1.9463,6.8408,3.2158l1.4199,.7451-8.3232,15.834Z"/><path class="cls-1" d="M125.3613,485.0396l10.9478-35.6611c2.123-6.9189,5.7656-11.8838,10.9272-14.8955,5.3013-3.0859,11.3804-3.5771,18.2358-1.4717,5.7539,1.7656,10.2715,4.874,13.5552,9.3232,3.6401,4.9121,4.6099,10.1396,2.9097,15.6777-1.4854,4.8398-4.8252,7.8594-10.0186,9.0596,2.4531,1.7842,3.9307,3.8701,4.4331,6.2607,.4229,2.0703,.1567,4.666-.8013,7.7852l-5.4229,17.665-17.9873-5.5225,4.668-15.2041c.6025-1.9629,.5264-3.4424-.2266-4.4385-.625-.8389-1.9863-1.5801-4.084-2.2246l-.8057-.248,4.3574-14.1953,.8877,.2725c3.9785,1.2217,6.4268,.3398,7.3433-2.6455,.3794-1.2354,.2739-2.4004-.3169-3.4941-.5918-1.0938-1.5059-1.8301-2.7422-2.21-1.6133-.4951-2.9155-.3281-3.9053,.5039-.9912,.8301-1.8706,2.4971-2.6396,5.0029l-11.126,36.2441-18.189-5.584Z"/><path class="cls-1" d="M224.77,461.61l-3.689-.4102c-3.8022-.4238-6.7275-.4512-8.7773-.085-3.0591,.5371-5.5244,1.9609-7.394,4.2715l19.2036,2.1348-1.6313,14.6758-19.2871-2.1445c1.2539,2.7148,3.3398,4.7002,6.2559,5.96,2,.8438,4.8867,1.4756,8.6606,1.8955l3.6899,.4111-1.8506,16.6455-1.5938-.1787c-10.7061-1.1885-18.54-3.7725-23.5029-7.748-4.0781-3.2832-7.126-7.2441-9.1426-11.8828s-2.7393-9.5293-2.1675-14.6738c1.1899-10.7051,6.8101-18.4844,16.8569-23.3389,4.2148-2.0215,9.9111-2.9873,17.0889-2.8965,2.3164,.0303,4.8311,.1973,7.543,.499l1.5933,.1768-1.856,16.6885Z"/><path class="cls-1" d="M232.7314,505.5719l-2.9004-34.4297c-.687-8.1553,.938-14.8252,4.8765-20.0127,3.937-5.1855,9.5073-8.083,16.71-8.6904,7.623-.6416,13.811,1.4482,18.564,6.2686,4.4419,4.4814,6.9907,10.6172,7.6475,18.4072l2.9009,34.4307-18.876,1.5898-1.5967-18.96-7.8193,.6592-1.3242-15.7227,7.8188-.6582-.1523-1.8076c-.1675-1.9902-.7397-3.501-1.7153-4.5342-.9766-1.0332-2.2773-1.4805-3.9023-1.3438-3.252,.2744-4.7002,2.5137-4.3457,6.7168l3.0742,36.4893-18.9595,1.5977Z"/><path class="cls-1" d="M308.1499,449.2408l11.8154,41.9033-18.272,5.1523-11.8154-41.9033-11.0845,3.125-4.5806-16.2402,40.4419-11.4043,4.5801,16.2412-11.085,3.126Z"/><path class="cls-1" d="M339.3003,484.2447l-24.1196-55.3887,17.4438-7.5967,24.1196,55.3887-17.4438,7.5967Z"/><path class="cls-1" d="M351.168,447.5826c-4.791-7.1504-6.3296-14.9639-4.6147-23.4434,1.7144-8.4785,6.1348-15.1074,13.2607-19.8828,7.1719-4.8066,14.9414-6.375,23.3076-4.7031,8.5381,1.7266,15.1875,6.1406,19.9473,13.2432,4.8076,7.1719,6.3789,14.9727,4.7148,23.4014-1.6875,8.5449-6.0825,15.1992-13.1841,19.959-7.0791,4.7441-14.8638,6.2891-23.3555,4.6328-8.5923-1.6562-15.2837-6.0596-20.0762-13.207Zm16.1089-10.8984c1.8945,2.8271,4.4551,4.6152,7.6826,5.3633,3.2275,.749,6.2432,.1836,9.0469-1.6963,2.7559-1.8467,4.3882-4.4131,4.895-7.6982,.5063-3.2861-.1709-6.3184-2.0352-9.0986-1.8628-2.7803-4.4019-4.5479-7.6187-5.3057-3.2153-.7559-6.2017-.2109-8.958,1.6377-2.7812,1.8633-4.4473,4.4277-5.001,7.6924-.5527,3.2666,.1094,6.3018,1.9883,9.1055Z"/><path class="cls-1" d="M429.7593,428.5533l-35.7119-32.5264c-6.4658-5.8906-7.314-11.4551-2.541-16.6943,3.4463-3.7852,8.4121-4.8721,14.8984-3.2637l13.9277,3.4404,5.4561,1.7168-18.9321-17.2441,12.6978-13.9414,36.2422,33.0098c6.1753,5.625,6.877,11.0566,2.105,16.2969-3.2383,3.5557-7.8472,4.6279-13.8267,3.2139l-15.1875-3.5615-2.4854-.7793-3.2139-1.0449,19.2124,17.499-12.6411,13.8789Z"/></g></g></g></svg>