<?xml version="1.0" encoding="utf-8"?>
<!-- Generator: Adobe Illustrator 26.5.0, SVG Export Plug-In . SVG Version: 6.00 Build 0)  -->
<svg version="1.1" id="Layer_1" xmlns="http://www.w3.org/2000/svg" xmlns:xlink="http://www.w3.org/1999/xlink" x="0px" y="0px"
	 viewBox="0 0 24 24" style="enable-background:new 0 0 24 24;" xml:space="preserve">
<style type="text/css">
	.st0{fill:#7196c9;}
</style>
<g>
	<g id="XMLID_00000044867151950754193940000003346958697369725365_">
		<g>
			<circle class="st0" cx="18.4" cy="5.6" r="1.4"/>
			<path class="st0" d="M12,5.8c3.4,0,6.2,2.8,6.2,6.2s-2.8,6.2-6.2,6.2S5.8,15.4,5.8,12S8.6,5.8,12,5.8z M16,12c0-2.2-1.8-4-4-4
				s-4,1.8-4,4s1.8,4,4,4S16,14.2,16,12z"/>
			<path class="st0" d="M12,21.9c3.2,0,3.6,0,4.9-0.1c3.2-0.2,4.7-1.7,4.9-4.9c0.1-1.3,0.1-1.6,0.1-4.9c0-3.2,0-3.6-0.1-4.8
				c-0.1-3.2-1.7-4.8-4.9-4.9c-1.3,0-1.7-0.1-4.9-0.1s-3.6,0-4.8,0.1c-3.3,0.1-4.8,1.6-5,4.9c0,1.2,0,1.6,0,4.8s0,3.6,0.1,4.9
				c0.2,3.2,1.7,4.8,4.9,4.9C8.5,21.9,8.9,21.9,12,21.9z M0.1,16.9C0,15.7,0,15.3,0,12s0-3.7,0.1-4.9c0.2-4.4,2.6-6.8,7-7
				C8.3,0,8.7,0,12,0s3.7,0,5,0.1c4.3,0.2,6.7,2.6,6.9,7C24,8.3,24,8.7,24,12s0,3.7-0.1,5c-0.2,4.4-2.6,6.8-7,7c-1.2,0-1.6,0-4.9,0
				s-3.7,0-4.9-0.1C2.7,23.7,0.3,21.3,0.1,16.9z"/>
		</g>
		<g>
		</g>
	</g>
</g>
</svg>
