<?xml version="1.0" encoding="utf-8"?>
<!-- Generator: Adobe Illustrator 26.5.0, SVG Export Plug-In . SVG Version: 6.00 Build 0)  -->
<svg version="1.1" id="Layer_1" xmlns="http://www.w3.org/2000/svg" xmlns:xlink="http://www.w3.org/1999/xlink" x="0px" y="0px"
	 viewBox="0 0 1700 1700" style="enable-background:new 0 0 1700 1700;" xml:space="preserve">
<style type="text/css">
	.st0{display:none;}
	.st1{fill:#323232;}
</style>
<path class="st0" d="M-1476.1-36.6h-1904.8c-164.1,0-297.6,133.5-297.6,297.6v1904.8c0,164.1,133.5,297.6,297.6,297.6h1904.8
	c164.1,0,297.6-133.5,297.6-297.6V261C-1178.4,96.9-1311.9-36.6-1476.1-36.6"/>
<g id="XMLID_00000133523260537258951520000007466609255106800282_">
	<g>
		<path class="st1" d="M-1713.6,776.1v278h-0.2c-13.7,1.3-27.3,2-41.1,2.1c-150.4,0-290.8-75.8-373.2-201.7v686.7
			c0,280.3-227.2,507.6-507.6,507.6c-280.3,0-507.6-227.2-507.6-507.6s227.2-507.6,507.6-507.6c5.3,0,10.5,0.2,15.8,0.6
			c5.2,0.3,10.4,0.7,15.6,1v250.1c-10.4-1.2-20.7-3.2-31.4-3.2c-143.1,0-259.1,116-259.1,259s116,259,259.1,259
			c143.1,0,269.5-112.7,269.5-255.8l2.5-1166.3h239.3C-2101.8,592.8-1928.7,760.4-1713.6,776.1z"/>
	</g>
	<g>
	</g>
</g>
<g id="XMLID_00000183209980642472928550000009239390230916154241_">
	<g>
		<path class="st1" d="M1564.8,412.6v278h-0.2c-13.7,1.3-27.4,2-41.1,2.1c-150.4,0-290.7-75.8-373.2-201.7v686.7
			c0,280.3-227.2,507.6-507.6,507.6s-507.6-227.2-507.6-507.6c0-280.3,227.2-507.6,507.6-507.6c5.3,0,10.5,0.2,15.8,0.6
			c5.2,0.3,10.4,0.7,15.6,1v250.1c-10.4-1.2-20.7-3.2-31.4-3.2c-143.1,0-259,116-259,259s116,259.1,259,259.1
			c143.1,0,269.5-112.7,269.5-255.8l2.5-1166.3H1154C1176.6,229.3,1349.6,396.9,1564.8,412.6z"/>
	</g>
	<g>
	</g>
</g>
</svg>
