<?xml version="1.0" encoding="utf-8"?>
<!-- Generator: Adobe Illustrator 26.5.0, SVG Export Plug-In . SVG Version: 6.00 Build 0)  -->
<svg version="1.1" id="Layer_1" xmlns="http://www.w3.org/2000/svg" xmlns:xlink="http://www.w3.org/1999/xlink" x="0px" y="0px"
	 viewBox="0 0 122.9 122.9" style="enable-background:new 0 0 122.9 122.9;" xml:space="preserve">
<style type="text/css">
	.st0{fill:#7196c9;}
</style>
<g id="XMLID_00000104670259259992808450000006488567567561802132_">
	<g>
		<path class="st0" d="M122.9,56.7v9.4c0,6.7-0.4,13.3-1.2,19.9c0,0-1.2,8.5-4.9,12.2c-4.7,4.9-9.9,4.9-12.3,5.2
			c-17.2,1.3-43,1.3-43,1.3s-32-0.3-41.8-1.2c-2.8-0.6-8.9-0.4-13.6-5.3C2.4,94.5,1.2,86,1.2,86C0.5,79.4,0.1,72.7,0,66v-9.3
			c0.1-6.6,0.5-13.2,1.2-19.9c0,0,1.2-8.5,4.9-12.2c4.7-4.9,9.9-4.9,12.3-5.2c17.2-1.2,43-1.2,43-1.2s25.8,0,43,1.2
			c2.4,0.3,7.6,0.3,12.3,5.2c3.7,3.7,4.9,12.2,4.9,12.2C122.4,43.4,122.8,50.1,122.9,56.7z M48.7,77.4l33.2-17.3L48.7,42.8V77.4z"/>
	</g>
	<g>
	</g>
</g>
</svg>
