{
  "accessors": [
    {
      "bufferView": 2,
      "componentType": 5126,
      "count": 65532,
      "max": [
        0.6790469884872437,
        1.0,
        0.5720769762992859
      ],
      "min": [
        -0.6790469884872437,
        -1.0,
        -0.5720769762992859
      ],
      "type": "VEC3"
    },
    {
      "bufferView": 2,
      "byteOffset": 786384,
      "componentType": 5126,
      "count": 65532,
      "max": [
        0.9999991059303284,
        0.773300290107727,
        0.9999901056289673
      ],
      "min": [
        -0.9999896287918091,
        -0.9998785853385925,
        -0.9999715685844421
      ],
      "type": "VEC3"
    },
    {
      "bufferView": 3,
      "componentType": 5126,
      "count": 65532,
      "max": [
        0.9999122023582458,
        0.9998832941055298,
        0.9999989867210388,
        1.0
      ],
      "min": [
        -0.9999954104423523,
        -0.9996539950370789,
        -0.9999873042106628,
        -1.0
      ],
      "type": "VEC4"
    },
    {
      "bufferView": 1,
      "componentType": 5126,
      "count": 65532,
      "max": [
        0.9829400181770325,
        0.9389299750328064
      ],
      "min": [
        0.07669000327587128,
        0.05307000130414963
      ],
      "type": "VEC2"
    },
    {
      "bufferView": 0,
      "componentType": 5125,
      "count": 383817,
      "type": "SCALAR"
    },
    {
      "bufferView": 2,
      "byteOffset": 1572768,
      "componentType": 5126,
      "count": 5242,
      "max": [
        0.5418599843978882,
        -0.6376519799232483,
        0.22597600519657135
      ],
      "min": [
        0.319350004196167,
        -0.997730016708374,
        -0.23066499829292297
      ],
      "type": "VEC3"
    },
    {
      "bufferView": 2,
      "byteOffset": 1635672,
      "componentType": 5126,
      "count": 5242,
      "max": [
        0.9772680997848511,
        0.4630020558834076,
        0.9999116659164429
      ],
      "min": [
        -0.9997747540473938,
        -0.9997243285179138,
        -0.9995302557945251
      ],
      "type": "VEC3"
    },
    {
      "bufferView": 3,
      "byteOffset": 1048512,
      "componentType": 5126,
      "count": 5242,
      "max": [
        0.9995654225349426,
        0.870673418045044,
        0.998386025428772,
        1.0
      ],
      "min": [
        -0.9991761445999146,
        -0.91888827085495,
        -0.98985755443573,
        1.0
      ],
      "type": "VEC4"
    },
    {
      "bufferView": 1,
      "byteOffset": 524256,
      "componentType": 5126,
      "count": 5242,
      "max": [
        0.7829099893569946,
        0.9430400133132935
      ],
      "min": [
        0.23914200067520142,
        0.808260977268219
      ],
      "type": "VEC2"
    },
    {
      "bufferView": 0,
      "byteOffset": 1535268,
      "componentType": 5125,
      "count": 28407,
      "type": "SCALAR"
    }
  ],
  "asset": {
    "extras": {
      "author": "kevinruiz (https://sketchfab.com/kevinruiz)",
      "license": "CC-BY-4.0 (http://creativecommons.org/licenses/by/4.0/)",
      "source": "https://sketchfab.com/3d-models/hand-a43c9c9059b24e2aa4af08d1a76f0916",
      "title": "hand"
    },
    "generator": "Sketchfab-12.68.0",
    "version": "2.0"
  },
  "bufferViews": [
    {
      "buffer": 0,
      "byteLength": 1648896,
      "name": "floatBufferViews",
      "target": 34963
    },
    {
      "buffer": 0,
      "byteLength": 566192,
      "byteOffset": 1648896,
      "byteStride": 8,
      "name": "floatBufferViews",
      "target": 34962
    },
    {
      "buffer": 0,
      "byteLength": 1698576,
      "byteOffset": 2215088,
      "byteStride": 12,
      "name": "floatBufferViews",
      "target": 34962
    },
    {
      "buffer": 0,
      "byteLength": 1132384,
      "byteOffset": 3913664,
      "byteStride": 16,
      "name": "floatBufferViews",
      "target": 34962
    }
  ],
  "buffers": [
    {
      "byteLength": 5046048,
      "uri": "scene.bin"
    }
  ],
  "images": [
    {
      "uri": "textures/Hands_Low_defaultMat1_baseColor.jpeg"
    },
    {
      "uri": "textures/Hands_Low_defaultMat1_metallicRoughness.png"
    },
    {
      "uri": "textures/Hands_Low_defaultMat1_normal.png"
    }
  ],
  "materials": [
    {
      "doubleSided": true,
      "name": "Hands_Low_defaultMat1",
      "normalTexture": {
        "index": 2
      },
      "occlusionTexture": {
        "index": 1
      },
      "pbrMetallicRoughness": {
        "baseColorTexture": {
          "index": 0
        },
        "metallicRoughnessTexture": {
          "index": 1
        }
      }
    }
  ],
  "meshes": [
    {
      "name": "defaultMaterial",
      "primitives": [
        {
          "attributes": {
            "NORMAL": 1,
            "POSITION": 0,
            "TANGENT": 2,
            "TEXCOORD_0": 3
          },
          "indices": 4,
          "material": 0,
          "mode": 4
        }
      ]
    },
    {
      "name": "defaultMaterial",
      "primitives": [
        {
          "attributes": {
            "NORMAL": 6,
            "POSITION": 5,
            "TANGENT": 7,
            "TEXCOORD_0": 8
          },
          "indices": 9,
          "material": 0,
          "mode": 4
        }
      ]
    }
  ],
  "nodes": [
    {
      "children": [
        1
      ],
      "matrix": [
        1.0,
        0.0,
        0.0,
        0.0,
        0.0,
        2.220446049250313e-16,
        -1.0,
        0.0,
        0.0,
        1.0,
        2.220446049250313e-16,
        0.0,
        0.0,
        0.0,
        0.0,
        1.0
      ],
      "name": "Sketchfab_model"
    },
    {
      "children": [
        2
      ],
      "matrix": [
        1.0,
        0.0,
        0.0,
        0.0,
        0.0,
        -4.371139006309477e-08,
        0.999999999999999,
        0.0,
        0.0,
        -0.999999999999999,
        -4.371139006309477e-08,
        0.0,
        0.0,
        0.0,
        0.0,
        1.0
      ],
      "name": "Collada visual scene group"
    },
    {
      "children": [
        3,
        4
      ],
      "name": "Hands_Low:Group52896"
    },
    {
      "mesh": 0,
      "name": "defaultMaterial"
    },
    {
      "mesh": 1,
      "name": "defaultMaterial"
    }
  ],
  "samplers": [
    {
      "magFilter": 9729,
      "minFilter": 9987,
      "wrapS": 10497,
      "wrapT": 10497
    }
  ],
  "scene": 0,
  "scenes": [
    {
      "name": "Sketchfab_Scene",
      "nodes": [
        0
      ]
    }
  ],
  "textures": [
    {
      "sampler": 0,
      "source": 0
    },
    {
      "sampler": 0,
      "source": 1
    },
    {
      "sampler": 0,
      "source": 2
    }
  ]
}
